<?xml version="1.0" encoding="utf-8"?>
<!-- Generator: Adobe Illustrator 24.0.2, SVG Export Plug-In . SVG Version: 6.00 Build 0)  -->
<svg version="1.1" id="Ebene_1" xmlns="http://www.w3.org/2000/svg" xmlns:xlink="http://www.w3.org/1999/xlink" x="0px" y="0px"
     viewBox="0 0 180 180" style="enable-background:new 0 0 180 180;" xml:space="preserve">
<style type="text/css">
	.st0{fill:#DB0066;}
	.st1{fill:#FFCC04;}
</style>
    <g id="Hummer">
	<path class="st0" d="M80.7,37.46c0.38-0.55,1.46-0.91,1.36-1.73c-0.14-1.1-3.37-0.2-3.96-0.07c-3.08,0.68-6,2.05-8.28,4.21
		c-4.02,3.8-6.18,9.56-6.52,15.1c-0.21,3.43,0.19,6.86,0.95,10.24c0.28,1.25,0.48,2.57,1.02,3.74c0.32,0.68,0.82,0.66,1.03-0.1
		c0.3-1.08,0.22-2.71,1.82-2.4c1.16,0.22,2.39,0.29,3.51-0.06c2.28-0.72,3.88-3.36,4.66-5.75c0.34-1.04,0.48-2.09,0.85-3.1
		c0.42-1.47,1.98-2.25,2.54-3.66c-1.4,0.33-3.44,0.45-4.68-0.55c-1.18-0.96-0.63-2.6-0.05-3.68c0.32-0.58,0.77-1.08,1.05-1.68
		c0.27-0.61,0.48-1.26,0.69-1.9c0.41-1.26,0.74-2.54,1.02-3.84c0.26-1.15,0.87-1.76,1.66-2.55C80.01,39.05,80.19,38.19,80.7,37.46z"
    />
        <path class="st0" d="M72.29,78.74L72.29,78.74C72.29,78.74,72.29,78.74,72.29,78.74C72.29,78.74,72.28,78.75,72.29,78.74z"/>
        <path class="st0" d="M107.94,79.25C107.94,79.24,107.94,79.24,107.94,79.25L107.94,79.25C107.95,79.26,107.94,79.25,107.94,79.25z"
        />
        <path class="st0" d="M79.59,81.66c0.13-0.47,0.25-1.02,0.37-1.49c0.23-0.92,1.06-3.49,1.06-3.49s-1.4-0.74-2.86-2.45
		c-0.07,0.68-0.32,1.24-0.83,1.69c-0.49,0.45-1.05,0.54-1.66,0.77c-0.68,0.25-1.27,0.66-1.91,0.99c-0.56,0.29-1.19,0.52-1.85,0.39
		c0.35,0.43,1.78,0.92,2.27,0.97c0.59,0.06,1.11,0.27,1.64,0.54c1.12,0.59,1.47,0.95,2.56,1.61C78.56,81.28,79.47,82.06,79.59,81.66
		z"/>
        <path class="st0" d="M68.91,74.56c0,0.01,0,0.03,0,0.04c0.01,0.32,0.11,0.65,0.22,0.97c0.06,0.17,0.11,0.33,0.18,0.5l0.02,0.07
		l0.02,0.05l0.05,0.12c0.02,0.04,0.04,0.07,0.06,0.11l0.02,0.05l0.04,0.05c0.18,0.27,0.46,0.47,0.76,0.61
		c0.31,0.13,0.63,0.21,0.96,0.23c0.34,0.03,0.67,0.02,0.99-0.01c0.17-0.02,0.33-0.04,0.49-0.07c0.04-0.01,0.1-0.02,0.14-0.03
		c0.04-0.01,0.1-0.02,0.14-0.03c0.36-0.09,0.71-0.22,1.02-0.4c0.13-0.08,0.24-0.16,0.34-0.25l0.07-0.07
		c-0.04-0.01-0.06-0.02-0.06-0.02l0,0c0,0-0.03-0.02-0.11-0.04c-0.07-0.02-0.19-0.06-0.34-0.12c-0.23-0.08-0.54-0.21-0.91-0.38
		c-0.03-0.02-0.05-0.02-0.08-0.03c-0.02-0.02-0.04-0.02-0.06-0.03c-0.07-0.04-0.14-0.07-0.23-0.11c-0.14-0.06-0.28-0.13-0.42-0.2
		c-0.14-0.07-0.3-0.14-0.47-0.22c-0.33-0.15-0.67-0.31-1.07-0.44c-0.1-0.02-0.19-0.06-0.29-0.09c-0.1-0.02-0.2-0.06-0.3-0.08
		c-0.1-0.02-0.21-0.05-0.32-0.07c-0.11-0.03-0.23-0.04-0.34-0.06C69.28,74.59,69.11,74.57,68.91,74.56z"/>
        <path class="st0" d="M67.33,68.11c0.62,1.05,1.24,2.29,0.73,3.45c-0.29,0.72-1.11,1.19-1.18,2.01c-0.03,0.32,0.01,1.57,0.47,1.67
		c0.17,0.01,0.28-0.26,0.34-0.38c0.26-0.54,0.84-0.72,1.42-0.7c1.72,0.06,3.11,1.04,4.71,1.56c0.79,0.25,2.09,0.61,2.81,0.13
		c0.7-0.46,1.2-1.28,1.12-2.15c-0.12-1.46-0.88-2.72-1.99-3.67c-1.25-1.12-2.77-1.88-3.63-3.39c-0.83,0.36-1.76,0.43-2.68,0.4
		c-0.53-0.02-1.71-0.47-2.13-0.15c-0.11,0.08,0.11-0.08,0,0C66.81,67.27,67.09,67.66,67.33,68.11z"/>
        <path class="st0" d="M76.67,35.72c0.12-0.03,0.25-0.06,0.36-0.09c-1.06-1.84-2.17-3.62-3.33-5.37c-0.02-0.04-0.05-0.08-0.08-0.12
		c0.78,1.41,1.66,3.01,2.58,4.69C76.37,35.13,76.52,35.43,76.67,35.72z"/>
        <path class="st0" d="M76.84,51.77c-0.13-0.32-1.14-2.68-1.55-1.93c-0.16,0.24-0.25,0.54-0.32,0.82c-0.48,1.94,0.67,2.91,2.52,3
		C77.28,53.03,77.09,52.39,76.84,51.77C76.78,51.6,76.91,51.93,76.84,51.77z"/>
        <path class="st0" d="M81.51,44.37c-0.02-0.15-0.17-0.38-0.24-0.52c-0.09-0.2-0.18-0.4-0.28-0.6c-0.39-0.85-0.79-1.69-1.21-2.51
		c-0.12-0.25-0.19-0.36-0.31-0.61c-0.16,0.15-0.33,0.28-0.5,0.42c-0.05,0.05,0.55,1.25,0.6,1.39c0.21,0.51,0.41,1.01,0.63,1.52
		c0.1,0.26,0.21,0.52,0.32,0.79c0.06,0.14,0.17,0.64,0.3,0.71c0.11,0.07,0.28,0.01,0.42-0.12C81.41,44.71,81.53,44.51,81.51,44.37z"
        />
        <path class="st0" d="M83.33,48.3c1.3-2.22,2.5-8.37,1.47-9.22c-0.33,0.42-0.25,0.97-0.68,1.38c-0.46,0.45-0.56,0.93-0.68,1.55
		c-0.11,0.55-0.3,1.03-0.82,1.28c-0.54,0.25-0.6,0.65-0.79,1.17c-0.32,0.88-0.94,0.68-1.48,1.22c-0.31,0.31-0.3,0.97-0.82,1.03
		c-0.49,0.06-0.55,0.53-0.69,0.92c-0.23,0.62-0.88,1.35-1.44,1.69c-0.49,0.3-1.28,0.27-0.91,0.93c0.34,0.6,0.59,1.25,0.81,1.9
		c0.14,0.44,0.33,1.4,0.66,1.24C80.22,52.31,82.22,50.53,83.33,48.3C83.36,48.25,83.3,48.36,83.33,48.3z"/>
        <path class="st0" d="M85.29,54.86c-0.02-0.03-0.02-0.06-0.03-0.09c-0.02-0.08-0.05-0.17-0.08-0.26c-0.03-0.09-0.07-0.19-0.1-0.29
		c-0.38-1.27-0.82-2.56-1.25-3.78c-0.14-0.39-0.29-0.8-0.43-1.19c-0.06-0.14-0.1-0.29-0.16-0.44c-0.16,0.35-0.34,0.68-0.55,1.01
		c0.35,0.92,0.71,1.85,1.05,2.78c0.1,0.24,0.18,0.51,0.26,0.75c0.14,0.42,0.29,0.86,0.48,1.27c0.02,0.05,0.05,0.11,0.07,0.17
		c0.06,0.14,0.13,0.3,0.2,0.39c0.01,0.01,0.02,0.02,0.02,0.02c0.05,0.04,0.1,0.05,0.17,0.06c0.13,0,0.27-0.05,0.33-0.09
		C85.37,55.13,85.39,55.1,85.29,54.86z"/>
        <path class="st0" d="M86.18,58.09c-0.17-0.81-0.24-1.65-0.39-2.44c-0.09-0.52-0.75-0.22-1.04-0.09c-0.1,0.05-0.14,0.14-0.13,0.27
		c0.05,0.41,0.22,0.79,0.36,1.18c0.07,0.2,0.14,0.4,0.17,0.61c0.02,0.08,0.12,0.57,0.1,0.59c0.14-0.12,0.3-0.14,0.48-0.16
		c0,0-0.01,0,0,0c-0.01,0-0.01,0.01,0,0C85.81,58.04,86.18,58.06,86.18,58.09z"/>
        <path class="st0" d="M86.68,60.44c0.1,0,0.22,0,0.33,0.01c-0.04-0.58-0.09-1.75-0.68-2.12c-0.15-0.09-0.88-0.09-1.03,0.03
		c-0.15,0.12-0.07,0.34-0.03,0.51c0.15,0.66,0.14,1.25,0.23,1.9C85.83,60.56,86.28,60.5,86.68,60.44
		C86.78,60.44,86.58,60.46,86.68,60.44z"/>
        <path class="st0" d="M87.23,60.87c-0.32-0.29-1.43-0.07-1.69,0.22c-0.36,0.4-0.09,1.05-0.05,1.54c0.13-0.08,0.29-0.08,0.43,0
		c0.31,0.18,0.25,0.47,0.22,0.76c0.19-0.38,0.83-0.39,1.05-0.04c0.11-0.3,0.18-0.49,0.27-0.8C87.59,62,87.71,61.31,87.23,60.87z"/>
        <path class="st0" d="M85.98,62.91C85.99,62.9,85.99,62.9,85.98,62.91L85.98,62.91L85.98,62.91z"/>
        <path class="st0" d="M88.88,60.04c0.01-0.01,0.02-0.02,0.03-0.03c-0.04-0.16-0.09-0.32-0.13-0.48c-0.14-0.49-0.26-0.98-0.39-1.47
		c-0.12-0.49-0.24-0.99-0.35-1.48c-0.05-0.24-0.1-0.5-0.15-0.74l-0.14-0.74l-0.14-0.74l-0.13-0.74c-0.04-0.25-0.09-0.5-0.13-0.74
		c-0.04-0.24-0.08-0.49-0.11-0.74c0-0.06-0.01-0.11-0.02-0.17c0.02,0.09,0.02,0.18,0.03,0.26c0.03,0.26,0.05,0.53,0.08,0.8
		c0.03,0.26,0.06,0.53,0.09,0.8c0.06,0.53,0.14,1.07,0.23,1.59c0.04,0.26,0.09,0.53,0.14,0.8c0.04,0.26,0.09,0.53,0.15,0.79
		c0.05,0.27,0.1,0.53,0.16,0.79c0.06,0.26,0.12,0.53,0.18,0.79c0.07,0.26,0.13,0.53,0.2,0.78c0.06,0.26,0.14,0.52,0.2,0.78l0.01,0
		l0.05-0.01l0.02-0.01l0.02-0.01l0.04-0.01C88.83,60.08,88.86,60.07,88.88,60.04z"/>
        <path class="st0" d="M90.77,60.06c0.07-0.24,0.12-0.48,0.18-0.71c0.06-0.25,0.12-0.51,0.17-0.77c0.05-0.25,0.1-0.51,0.15-0.78
		c0.05-0.26,0.09-0.52,0.14-0.78c0.05-0.26,0.08-0.52,0.12-0.78c0.04-0.25,0.08-0.52,0.11-0.78c0.03-0.26,0.06-0.52,0.09-0.78
		c0.06-0.53,0.1-1.05,0.14-1.58c0.02-0.27,0.04-0.53,0.06-0.79c0.01-0.27,0.03-0.53,0.03-0.8c0.01-0.1,0.01-0.18,0.01-0.27
		c0,0.06,0,0.11-0.01,0.16c-0.02,0.24-0.05,0.49-0.08,0.74c-0.02,0.25-0.05,0.49-0.08,0.74l-0.1,0.74l-0.1,0.74l-0.11,0.74
		c-0.04,0.24-0.07,0.49-0.12,0.73c-0.08,0.49-0.16,0.98-0.27,1.46c-0.1,0.48-0.2,0.97-0.3,1.45c-0.05,0.25-0.1,0.48-0.16,0.72
		l-0.12,0.51l0,0c0.06,0.05,0.13,0.07,0.2,0.09C90.75,60.05,90.76,60.05,90.77,60.06z"/>
        <path class="st0" d="M92.24,63.69c-0.2-0.72-0.19-1.46-0.33-2.2c-0.07-0.35-0.19-0.76-0.43-1.04c-0.21-0.24-0.47-0.21-0.75-0.25
		c-0.42-0.07-0.57-0.55-0.95-0.67c-0.55-0.17-0.59,0.65-1.07,0.76c-0.48,0.11-0.69,0.11-0.81,0.67c-0.1,0.47-0.1,0.94-0.19,1.42
		c-0.09,0.46-0.26,1.07-0.23,1.61c0.02,0.62-0.14,1.46-0.79,1.64c-1,0.3-1.09-0.97-0.98-1.58c0.07-0.36,0.54-1.42-0.18-1.16
		c-0.63,0.22-0.52,1.37-0.56,1.9c-0.04,0.5-0.19,0.99-0.36,1.46c-0.52,1.52-1.2,2.97-1.72,4.49c-0.44,1.29-0.7,2.6-0.92,3.95
		c-0.24,1.49-0.9,3.12-0.57,4.67c0.67,3.11,3.4,4.61,6.31,5.03c0.55,0.06,1.12,0.09,1.65,0.22c0.5,0.09,0.94,0.41,1.45,0.37
		c0.81-0.06,1.55-0.44,2.38-0.49c0.78-0.04,1.5-0.12,2.23-0.35c1.52-0.46,2.75-1.37,3.44-2.81c0.7-1.47,0.39-3.07,0.02-4.63
		c-0.42-1.81-0.91-3.61-1.49-5.37c-0.59-1.79-1.51-3.4-2.24-5.13c-0.26-0.63-0.38-1.18-0.48-1.85c-0.04-0.22-0.07-0.44-0.14-0.65
		c-0.06-0.19-0.14-0.43-0.3-0.56c-0.08-0.07-0.19-0.12-0.3-0.11c-0.59,0.02,0.01,0.7,0.1,0.92c0.13,0.32,0.16,0.7,0.14,1.03
		c-0.04,0.73-0.65,1-1.24,0.65C92.18,65.15,92.41,64.41,92.24,63.69z"/>
        <path class="st0" d="M92.32,61.82c-0.09,0.53,0.05,1.09,0.18,1.61c0.12-0.12,0.33-0.21,0.5-0.24c0.17-0.03,0.38,0,0.52,0.12
		c-0.04-0.25,0.02-0.54,0.29-0.6c0.13-0.03,0.28,0,0.39,0.08c0.11,0.08,0.2,0.2,0.26,0.32c0.04-0.3,0.05-0.58,0.02-0.88
		c-0.02-0.28-0.1-0.56-0.36-0.73c-0.32-0.2-0.74-0.24-1.1-0.29c-0.09-0.02,0.1,0.01,0,0C92.62,61.15,92.39,61.43,92.32,61.82z"/>
        <path class="st0" d="M93.85,58.8c-1.13-0.1-1.1,1.2-1.1,2.1c0.42-0.07,1.15,0.14,1.52,0.36c0.02-0.28-0.07-0.56-0.05-0.84
		c0.04-0.37,0.39-1.15,0.17-1.52C94.23,58.79,94.03,58.82,93.85,58.8C93.8,58.79,93.92,58.81,93.85,58.8z"/>
        <path class="st0" d="M94.39,56.04c-0.46-0.03-0.87-0.49-0.78,0.41c0.06,0.74-0.14,1.41-0.24,2.13c0.28-0.08,0.75-0.12,1.03-0.01
		c-0.04-0.32-0.03-0.61,0.01-0.93c0.05-0.39,0.54-1.07,0.37-1.44C94.69,56.07,94.57,56.04,94.39,56.04
		C94.38,56.04,94.42,56.05,94.39,56.04z"/>
        <path class="st0" d="M96.84,46.27c-0.34,0.95-0.64,1.88-0.91,2.79c-0.07,0.25-0.15,0.51-0.22,0.76c-0.13,0.39-0.24,0.79-0.35,1.18
		c-0.36,1.25-0.71,2.48-1.01,3.74c-0.02,0.1-0.05,0.2-0.08,0.29c-0.02,0.08-0.05,0.17-0.07,0.25c-0.01,0.03-0.01,0.06-0.03,0.09
		c-0.06,0.22-0.05,0.25,0.03,0.29c0.07,0.04,0.2,0.09,0.33,0.1c0.07-0.01,0.13-0.02,0.16-0.06c0.01-0.01,0.01-0.01,0.02-0.02
		c0.07-0.09,0.13-0.25,0.18-0.39c0.02-0.07,0.04-0.12,0.06-0.17c0.16-0.41,0.29-0.84,0.4-1.26c0.07-0.25,0.14-0.51,0.21-0.75
		c0.45-1.44,0.91-2.87,1.37-4.27l0.02-0.07c0.2-0.59,0.39-1.19,0.6-1.79c-0.08-0.07-0.16-0.15-0.24-0.22
		c-0.14-0.12-0.26-0.26-0.38-0.4C96.89,46.34,96.86,46.29,96.84,46.27z"/>
        <path class="st0" d="M99.68,40.98c-0.35-0.55-1.19-0.59-1.58-1.11c-0.28-0.44-0.19-0.97-0.43-1.42c-0.3-0.55-1-0.61-1.26-1.22
		c-0.32-0.74,0.03-1.65-0.52-2.31c-0.33-0.36-0.54-0.54-0.67-1.01c-0.07-0.26-0.01-0.6-0.17-0.84c-1.72,0.2-0.98,4.8-0.84,5.82
		c0.32,2.28,0.85,4.57,2.32,6.46c1.1,1.4,2.67,2.63,4.1,3.65c1.04,0.74,1.17,0.12,1.81-0.78c0.33-0.47,0.61-0.87,1.02-1.28
		c0.18-0.18,0.24-0.24,0.74-0.68c-1.16-0.83-2.6-1.55-3.03-3.06c-0.07-0.25-0.12-0.85-0.46-0.92c-0.19-0.04-0.36-0.04-0.5-0.21
		C99.92,41.74,99.9,41.31,99.68,40.98C99.58,40.82,99.7,41,99.68,40.98z"/>
        <path class="st0" d="M105.53,46.13c-1.52-0.12-2.87,2.69-3.48,3.59c1.11,0.16,2.62,0.28,3.47-0.56
		C106.28,48.41,106.05,47.04,105.53,46.13C105.43,46.12,105.56,46.22,105.53,46.13z"/>
        <path class="st0" d="M99.76,40.76c0.69-1.78,1.41-3.48,2.24-5.18c0.02-0.05,0.01-0.01,0.04-0.07c-0.08-0.07-0.17-0.15-0.24-0.23
		c-0.92,1.7-1.73,3.31-2.54,5.07C99.44,40.45,99.62,40.59,99.76,40.76z"/>
        <path class="st0" d="M111.95,65.18c1.09,0.06,1.52,0.7,1.63,1.72c0.07,0.59-0.12,2.13,0.86,1.97c0.61-0.03,1.03-0.94,1.3-1.38
		c0.56-0.95,1.03-1.95,1.52-2.93c2.42-4.8,4.14-10.99,2.81-16.5c-1.41-5.84-4.82-11.1-10.02-14.31c-2.48-1.52-5.17-2.63-7.93-3.46
		c-0.68-0.21-2.65-1.01-3.23-0.37c-0.87,0.68,1.37,2.11,1.68,2.6c0.45,0.68,0.3,1.52,0.85,2.2c0.22,0.28,0.49,0.52,0.75,0.77
		c1.21,1.12,1.31,2.09,1.37,3.63c0.06,0.88,0.4,1.7,0.63,2.54c0.27,1,0.3,2.09,0.82,3.03c0.8,1.47,2.36,3.21,0.81,4.81
		c-1.58,1.64-5.08,0.69-7-0.03c0.57,1.79,2.72,2.97,2.76,4.93c0.13,1.2,0.26,2.33,0.68,3.49c0.7,1.93,2,4.46,3.7,5.72
		C107.68,64.87,109.93,65.09,111.95,65.18C112.18,65.19,111.49,65.15,111.95,65.18z"/>
        <path class="st0" d="M110.49,74.55c0.63-0.11,1.4-0.13,1.92,0.36c0.21,0.21,0.3,0.52,0.53,0.7c-0.01,0-0.01-0.01-0.01,0
		c0.44-0.09,0.43-0.95,0.44-1.29c0.03-0.85-0.56-1.35-1.04-1.99c-0.52-0.69-0.64-1.46-0.45-2.28c0.24-1.04,2.11-3.09,0.88-4.17
		c-0.57-0.49-1.85-0.21-2.53-0.3c-0.62-0.07-1.25-0.19-1.86-0.34c-0.65,1.51-1.2,2.65-2.53,3.69c-0.88,0.7-1.91,1.31-2.56,2.25
		c-0.72,1.04-1.2,2.68-0.64,3.95c0.54,1.13,1.83,1.34,2.9,1.13C107.25,75.87,108.72,74.84,110.49,74.55
		C110.49,74.55,110.38,74.57,110.49,74.55z"/>
        <path class="st0" d="M107.28,78.16c0.13,0.06,0.28,0.04,0.42,0.04c0.6-0.05,1.2-0.05,1.77-0.25c0.68-0.23,0.95-0.79,1.17-1.43
		c0.11-0.31,0.23-0.63,0.25-0.97c0-0.13,0-0.26-0.02-0.37c-0.03,0-0.07,0-0.11,0c-0.11,0-0.22,0.02-0.34,0.03
		c-0.1,0.01-0.22,0.02-0.33,0.04c-0.1,0.01-0.2,0.03-0.31,0.05c-0.1,0.03-0.2,0.05-0.3,0.07c-0.65,0.16-1.22,0.5-1.83,0.77
		c-0.21,0.1-0.43,0.2-0.57,0.38c-0.12,0.17-0.16,0.39-0.16,0.6c0,0.18,0,0.44,0.07,0.67C107.05,77.94,107.13,78.09,107.28,78.16z"/>
        <path class="st0" d="M100.97,82.12c1.19-0.59,2.22-1.47,3.4-2.1c0.53-0.28,1.07-0.49,1.69-0.54c0.53-0.04,1.28,0.05,1.68-0.35
		c-1.15-0.61-1.48-1.25-1.24-2.62c-1.86,0.29-4.22,0.51-4.48-2.17c-1.34,1.47-2.67,2.28-2.67,2.28S100.81,81.48,100.97,82.12z"/>
        <path class="st0" d="M113.6,80.13c-0.17,0.46,0.24,0.97,0.72,0.89c0.75-0.13,1.24-0.92,1.54-1.53c0.62-1.27,1.14-2.81,0.69-4.26
		c-0.44,1.18-0.94,2.35-1.68,3.37C114.48,79.09,113.82,79.51,113.6,80.13C113.53,80.3,113.65,79.97,113.6,80.13z"/>
        <path class="st0" d="M109.35,83.9c0.62-0.27,1.18-0.63,1.77-0.97c0.89-0.52,1.74-1.14,2.54-1.79c-0.46-0.28-0.61-0.82-0.43-1.29
		c-0.87,0.53-1.43,1.05-2.45,1.35c-0.63,0.19-1.23,0.45-1.79,0.78c-0.49,0.29-1,0.57-1.43,0.94c-0.34,0.29-0.55,0.72-0.18,1.1
		c0.08,0.08,0.15,0.13,0.23,0.17C108.13,84.47,108.86,84.13,109.35,83.9z"/>
        <path class="st0" d="M101.55,84.96c0.1,0.47,0.14,0.96,0.25,1.44c1.11-0.28,2.26-0.41,3.35-0.72c0.73-0.21,2.04-0.49,2.54-1.09
		c-0.52-0.32-1.26-0.61-0.71-1.36c-1.09,0.33-1.99,0.84-3.16,0.92c-0.52,0.03-1.05,0.1-1.56,0.18
		C101.71,84.45,101.41,84.28,101.55,84.96z"/>
        <path class="st0" d="M118.3,85.75c0.84-0.96,1.93-1.54,2.35-2.84c-1.26,1.09-2.7,1.56-4.16,2.29c-0.39,0.21-1.77,1.03-0.93,1.53
		C116.53,87.31,117.72,86.41,118.3,85.75z"/>
        <path class="st0" d="M111.07,89.98c1.06-0.49,2.1-0.98,3.15-1.51c0.68-0.34,1.39-0.59,1.84-1.22c-0.46,0-1.34-0.18-1.28-0.82
		c-1.01,0.84-2.08,0.89-3.31,1.23c-0.81,0.23-1.48,0.61-2.2,1.05c-0.55,0.34-2.34,1.33-0.88,1.97
		C109.25,90.83,110.33,90.3,111.07,89.98z"/>
        <path class="st0" d="M101.98,90.38c-0.18,0.03-0.3,1.72-0.34,1.98c1.95-0.31,4-0.39,5.88-1.06c1.11-0.4,0.17-0.24,0.02-1.12
		c-0.02-0.2,0.04-0.37,0.13-0.54c-0.9,0.08-1.64,0.6-2.52,0.67C104.1,90.41,103.01,90.2,101.98,90.38
		C101.95,90.4,102.16,90.36,101.98,90.38z"/>
        <path class="st0" d="M116.06,95.53c0.92-0.62,1.61-1.5,2.53-2.1c-0.76-0.05-1.64,0.51-2.33,0.79c-0.62,0.26-2.78,0.74-2.85,1.51
		C113.4,97.03,115.68,95.79,116.06,95.53z"/>
        <path class="st0" d="M105.38,96.59c-0.44,1.21,2.56,0.82,2.85,0.78c1.73-0.18,3.63-0.19,5.17-0.99c-0.35-0.25-0.43-0.75-0.24-1.09
		c-1.48,0.33-2.88,0.62-4.42,0.65C107.93,95.97,105.76,95.58,105.38,96.59C105.38,96.62,105.43,96.46,105.38,96.59z"/>
        <path class="st0" d="M101.27,94.01c-0.15,0.51-0.28,1.02-0.46,1.52c1.5,0.56,2.96,1.23,4.45,1.77c-0.33-0.56-0.15-1.07,0.43-1.32
		c-0.6-0.28-1.23-0.29-1.82-0.51C102.95,95.11,102.16,94.44,101.27,94.01z"/>
        <path class="st0" d="M112.84,102.77c1.07-0.27,2.05-0.76,2.73-1.61c-0.88,0.3-1.84,0.59-2.79,0.6c-0.48,0-1.4-0.32-1.65,0.25
		C110.52,103.01,112.48,102.86,112.84,102.77z"/>
        <path class="st0" d="M103.92,100.87c0,0.07,0.05,0.14,0.09,0.2c0.13,0.16,0.33,0.27,0.51,0.35c0.27,0.13,0.57,0.22,0.85,0.3
		c0.36,0.1,0.71,0.18,1.07,0.25c0.39,0.07,0.78,0.14,1.17,0.2c0.38,0.06,0.77,0.12,1.15,0.17c0.34,0.05,0.68,0.08,1.01,0.12
		c0.26,0.04,0.51,0.06,0.77,0.09c0.12,0.02,0.25,0.03,0.38,0.05c-0.19-0.27-0.12-0.69,0.08-0.93c-0.69-0.23-1.44,0-2.14-0.28
		c-0.69-0.28-1.38-0.56-2.1-0.72c-0.32-0.07-0.66-0.13-0.99-0.19c-0.44-0.07-0.89-0.13-1.31-0.07c-0.19,0.02-0.4,0.1-0.49,0.26
		C103.93,100.72,103.92,100.79,103.92,100.87z"/>
        <path class="st0" d="M99.38,97.81c-0.04,0.03-0.1,0.07-0.16,0.08c1.39,1.15,3.01,2.26,4.52,3.25c-0.19-0.62,0.23-0.92,0.77-0.91
		c-0.74-0.73-1.78-1.21-2.57-1.89c-0.52-0.46-1.07-0.86-1.63-1.28C100.2,96.98,99.59,97.67,99.38,97.81
		C99.33,97.85,99.44,97.78,99.38,97.81z"/>
        <path class="st0" d="M103.92,130.08c0.47-0.06,0.88-0.29,1.31-0.46c0.64-0.25,1.36-0.64,1.69-1.27c0.32-0.58,0.44-1.35,0.3-2.01
		c-0.17-1.1-1.26-1.99-2.15-2.5c-1.08-0.56-2.24-0.91-3.33-1.45c-0.81-0.4-1.38-1.06-1.99-1.72c-0.34,0.49-1.01,0.72-1.58,0.81
		c0.55-0.09,1.78,3.13,1.93,3.5c0.64,1.59,1.76,2.73,2.71,4.12C103.11,129.54,103.26,130.17,103.92,130.08z"/>
        <path class="st0" d="M95.85,132.22c0.94,0.66,2.44,0.41,3.47,0.3c1.09-0.09,2.41-0.18,3.21-1c1.13-1.15-0.28-2.33-1.07-3.27
		c-0.93-1.12-1.5-2.56-2.09-3.87c-0.22-0.45-1.24-2.91-1.79-2.83c-0.22-0.07-0.7,0.09-0.93,0.12c1,1.98,0.53,4.19,0.47,6.05
		c-0.04,1.19-0.38,2.99-0.98,4.06C96.06,131.82,95.8,132.27,95.85,132.22z"/>
        <path class="st0" d="M96.35,130.14c0.3-1.41,0.21-2.89,0.36-4.33c0.12-1.21,0.38-2.84-0.44-3.91c-0.35-0.43-2.38-0.01-2.85,0.24
		c-0.58,0.3-1.11,0.57-1.78,0.58c-1.24,0.02-2.06-0.71-3.15-1.19c-2.06-0.89-2.17,1.87-1.88,3.32c0.39,1.94,0.42,4.16,1.24,6
		c0.35,0.78,0.99,1.37,1.77,1.73C92.45,133.87,95.64,133.42,96.35,130.14z"/>
        <path class="st0" d="M80.76,129.93c-0.03,1.09,1.24,1.71,2.13,1.96c1.34,0.36,3.78,0.84,5,0.12c-0.94-1.13-1.11-2.72-1.21-4.09
		c-0.1-1.21-0.37-2.46-0.49-3.66c-0.1-0.96-0.04-2.07,0.58-2.86c-0.31-0.02-0.83-0.18-1.13-0.12c-0.63,0.14-1.13,1.51-1.37,2.11
		c-0.6,1.39-0.86,2.78-1.7,4.09C82.07,128.24,80.79,128.94,80.76,129.93C80.76,129.96,80.76,129.83,80.76,129.93z"/>
        <path class="st0" d="M84.1,120.81c-0.18-0.13-0.33-0.27-0.46-0.43c-0.85,0.85-1.51,1.43-2.62,1.81c-1.43,0.47-2.92,0.85-4.02,1.92
		c-0.85,0.83-0.96,2.03-0.52,3.16c0.2,0.45,0.48,0.8,0.88,1.1c0.82,0.62,1.86,0.96,2.84,1.13c0.29-0.64,0.93-1.09,1.43-1.55
		c1.87-1.78,1.82-4.73,3.39-6.68C84.7,121.15,84.38,121.01,84.1,120.81C83.93,120.69,84.39,121.01,84.1,120.81z"/>
        <path class="st0" d="M99.52,117.71c-0.23-0.46-0.53-0.88-1.01-1.04c-0.13,0.28-0.33,0.52-0.58,0.69c-1.06,0.74-3.06,0.66-4.31,0.54
		c-1.62-0.14-3.24-0.13-4.86-0.19c-1.06-0.03-2.09-0.01-3.11-0.33c-0.58-0.19-1.09-0.53-1.34-1.12c-0.59,0.22-1,0.67-1.15,1.28
		c-0.47,2,0.74,3.03,2.6,3.23c0.74,0.08,1.49-0.03,2.22,0.04c1.27,0.1,2.2,1.23,3.51,1.33c0.63,0.01,1.1-0.21,1.66-0.49
		c1.68-0.84,6.22,0.52,6.63-1.96C99.92,119.03,99.82,118.37,99.52,117.71z"/>
        <path class="st0" d="M98.33,116.42c0.34-0.88,0.33-2.32-0.39-3.07c-0.98,1.88-4.91,0.96-6.56,0.91c-1.85-0.06-5.69,0.77-6.74-1.27
		c-0.63,0.77-0.89,1.92-0.06,3.14c0.55,0.8,1.54,0.9,2.37,0.98c0.92,0.07,1.83,0,2.74,0.12c0.92,0.13,1.83-0.13,2.75-0.02
		C93.96,117.39,97.64,118.22,98.33,116.42C98.39,116.28,98.32,116.46,98.33,116.42z"/>
        <path class="st0" d="M97.66,110.13c-0.72,0.89-2.47,0.88-3.54,0.86c-1.15-0.03-2.25,0.05-3.4,0.07c-0.8,0.02-1.6-0.24-2.4-0.28
		c-1.15-0.06-2.79,0.05-3.62-0.98c-0.39,0.8-0.42,2.01,0.18,2.93c0.45,0.68,1.26,0.79,1.98,0.88c1.52,0.2,2.99-0.01,4.5,0.07
		c1.53,0.08,6.08,1.25,6.56-1.01C98.1,111.89,98.12,110.88,97.66,110.13z"/>
        <path class="st0" d="M97.69,106.93c-0.57,0.43-1.35,0.51-2.05,0.58c-1.58,0.16-3.23-0.02-4.84,0.07c-1.18,0.06-2.38-0.09-3.55-0.17
		c-0.92-0.06-2-0.18-2.74-0.82c-0.4,1.2-0.1,3.07,1.34,3.43c1.19,0.3,2.39,0.11,3.58,0.31c1.48,0.31,3.08,0.08,4.59,0.17
		c1,0.06,3.14,0.27,3.63-0.83C98.04,108.89,98.02,107.71,97.69,106.93z"/>
        <path class="st0" d="M97.61,106.6c0.73-0.61,0.74-2.1,0.4-2.99c-0.14-0.38-2.09-0.21-2.6-0.28c-1.46-0.18-2.9-0.31-4.37-0.36
		c-0.72-0.03-1.44,0.02-2.16,0.06c-1.48,0.07-3.44,0.76-4.9,0.24c-1.07,3.97,3.81,3.75,6.34,3.73c0.83,0,1.65-0.1,2.48-0.07
		c0.85,0.04,1.73,0.2,2.57,0.16C96.1,107.06,97.04,107.08,97.61,106.6C97.62,106.58,97.6,106.6,97.61,106.6z"/>
        <path class="st0" d="M97.79,102.9c1.22-0.2,0.98-2.16,1.08-3.15c0.02-0.31,0.05-0.61,0.09-0.92c0.14-0.92-0.16-0.51-0.82-0.48
		c-1.27,0.05-2.05-0.86-3.04-1.5c-1.04-0.86-3.31-0.79-4.57-0.85c-1.53-0.06-2.84-0.24-3.99,0.79c-1.22,1.08-2.27,1.54-3.88,1.15
		c-0.01,0.68,0.33,1.31,0.53,1.97c0.21,0.72,0.26,1.39,0.34,2.13c0.04,0.45,0.28,0.67,0.68,0.79c0.78,0.25,1.76-0.09,2.55-0.19
		c1.02-0.12,2.05-0.22,3.09-0.25c1.08-0.04,2.13,0.03,3.21,0.13C94.61,102.66,96.26,103.14,97.79,102.9
		C97.86,102.9,97.76,102.91,97.79,102.9z"/>
        <path class="st0" d="M99.76,96.79c1.48-2.21,1.81-5.47,1.81-8.13c0-2.99-0.65-6.15-1.84-8.94c-0.3,3.05-2.95,4.79-5.85,5.08
		c-0.74,0.08-1.41,0.14-2.1,0.39c-0.36,0.13-0.75,0.26-1.15,0.24c-0.51-0.03-0.97-0.31-1.48-0.38c-3.6-0.46-7.98-1.61-8.38-6.05
		c-1.11,2.96-1.5,6.45-1.16,9.67c0.18,1.77,0.38,3.57,1.03,5.26c0.45,1.17,0.98,2.68,2.11,3.41c1.69,1.12,2.94-1,4.16-1.66
		c0.92-0.5,2.16-0.31,3.18-0.27c1.09,0.03,2.15,0.18,3.23,0.36c0.74,0.12,1.5,0.2,2.11,0.71c0.67,0.49,1.24,1.09,2.07,1.32
		C98.46,98.07,99.24,97.57,99.76,96.79C99.8,96.73,99.75,96.79,99.76,96.79z"/>
        <path class="st0" d="M77.23,100.11c0.54,0.01,1.04,0.28,0.87,0.89c0.89-0.58,1.68-1.3,2.58-1.89c0.52-0.34,1.76-0.79,1.57-1.49
		c-0.27-0.23-0.51-0.5-0.71-0.79c-0.91,0.69-1.76,1.41-2.65,2.13C78.36,99.37,77.69,99.65,77.23,100.11z"/>
        <path class="st0" d="M66.43,80.17c1.03-0.61-0.7-1.89-1.09-2.33c-0.85-1-1.42-2.29-1.94-3.48c-0.33,1.33,0.18,2.68,0.77,3.9
		C64.47,78.89,65.52,80.73,66.43,80.17C66.54,80.11,66.39,80.19,66.43,80.17z"/>
        <path class="st0" d="M73.22,83.69c0.78-0.77-1.69-2.09-2.18-2.34c-0.86-0.45-1.85-0.55-2.7-1.01c-0.52-0.28-0.9-0.74-1.4-1.04
		c0.21,0.48,0.08,1.01-0.34,1.27c1.1,0.88,2.4,1.6,3.62,2.25c0.64,0.33,1.92,1.28,2.68,1.06C73.03,83.85,73.14,83.78,73.22,83.69
		C73.31,83.6,73.17,83.74,73.22,83.69z"/>
        <path class="st0" d="M78.97,86.02c-0.02-0.34-0.01-0.68,0.01-1.02c0.01-0.16,0.03-0.34,0.05-0.51c0.02-0.14,0.01-0.33,0.09-0.45
		c-0.41-0.07-0.81-0.12-1.22-0.16c-0.4-0.03-0.8-0.12-1.2-0.15c-1.28-0.11-2.02-0.63-3.22-1.01c0.41,0.53,0.4,1.33-0.9,1.42
		c0.05-0.01,0.16,0.07,0.21,0.09c0.09,0.03,0.17,0.06,0.25,0.1c0.16,0.07,0.32,0.14,0.48,0.2c0.32,0.13,0.63,0.24,0.96,0.34
		c0.65,0.21,1.3,0.4,1.95,0.56c0.44,0.11,0.88,0.22,1.32,0.31c0.22,0.04,0.44,0.1,0.65,0.14c0.08,0.02,0.18,0.05,0.28,0.07
		C78.79,86.02,78.89,86.04,78.97,86.02z"/>
        <path class="st0" d="M70.61,102.32c0.96-0.94-1.38-0.92-1.56-0.93c-0.99-0.01-1.98-0.35-2.91-0.68
		C66.98,101.7,69.4,103.24,70.61,102.32C70.66,102.27,70.6,102.33,70.61,102.32z"/>
        <path class="st0" d="M77.73,100.62c-0.6-0.55-2.5-0.1-3.14,0.06c-0.68,0.17-1.33,0.53-2.02,0.67c-0.57,0.11-1.22-0.05-1.78,0.12
		c0.46,0.21,0.31,0.66,0.14,0.93c1.89-0.3,3.82-0.28,5.68-0.76C76.86,101.59,78.33,101.18,77.73,100.62
		C77.63,100.54,77.75,100.65,77.73,100.62z"/>
        <path class="st0" d="M65.12,93.18c-0.73-0.35-1.96-1.06-2.73-1.02c0.52,0.34,5.3,4.64,5.32,2.5
		C67.64,93.84,65.74,93.45,65.12,93.18z"/>
        <path class="st0" d="M75.73,95.85c-0.44-1.03-2.58-0.7-3.39-0.74c-1.54-0.08-2.97-0.4-4.47-0.78c0.21,0.34,0.17,0.86-0.17,1.09
		c1.59,0.85,3.5,0.91,5.24,1.14C73.22,96.6,76.26,97.07,75.73,95.85C75.67,95.73,75.74,95.88,75.73,95.85z"/>
        <path class="st0" d="M80,93.35c-0.96,0.4-1.76,1.11-2.72,1.48c-0.59,0.2-1.22,0.19-1.79,0.45c0.59,0.25,0.82,0.77,0.51,1.33
		c1.52-0.53,3.02-1.18,4.54-1.72C80.34,94.4,80.17,93.88,80,93.35C79.97,93.37,80.04,93.5,80,93.35z"/>
        <path class="st0" d="M79.54,91.64c-0.34-0.75-0.57-2.06-0.57-2.06s-0.61-0.04-0.83-0.06c-0.67-0.04-1.33-0.05-1.99-0.06
		c-1.12-0.02-2-0.62-3.09-0.76c0.38,0.6-0.04,1.37-0.72,1.47c0.84,0.24,1.67,0.51,2.51,0.72c1.14,0.3,2.28,0.29,3.42,0.5
		C78.7,91.47,79.11,91.57,79.54,91.64z"/>
        <path class="st0" d="M70.94,87.54c-0.86-0.41-1.76-0.78-2.67-1.03c-0.47-0.12-0.88-0.33-1.33-0.52c-0.2-0.09-1.12-0.44-1.31-0.65
		c0.1,0.64-0.66,0.75-1.12,0.72c0.6,0.78,8.13,5.29,8.43,3.09C72.87,88.27,71.6,87.86,70.94,87.54z"/>
        <path class="st0" d="M65.36,85.33c0.01-0.22-0.22-0.38-0.38-0.48c-0.98-0.66-2.02-1.11-3.03-1.81c-0.37-0.26-1.73-1.26-2.09-1.72
		c0.26,0.69,0.43,1.06,0.68,1.39c0.72,1,1.51,1.88,2.57,2.53c0.45,0.27,0.97,0.49,1.49,0.44c0.19-0.01,0.55-0.02,0.68-0.19
		C65.33,85.44,65.35,85.39,65.36,85.33z"/>
        <path class="st0" d="M92.51,64.43c0.02,0.4,0.19,0.87,0.59,1.05c0.42,0.18,0.76,0.04,0.85-0.39c0.1-0.4-0.03-0.86-0.21-1.23
		c-0.11-0.23-0.41-0.39-0.65-0.39c-0.29,0.02-0.45,0.22-0.53,0.48C92.52,64.1,92.51,64.28,92.51,64.43z"/>
        <path class="st0" d="M85.94,64.01c-0.06,0.17-0.1,0.37-0.1,0.56c-0.01,0.15,0.01,0.31,0.06,0.47c0.09,0.28,0.3,0.48,0.61,0.45
		c0.1-0.01,0.19-0.03,0.27-0.07c0.53-0.22,0.65-0.97,0.48-1.51c-0.09-0.29-0.33-0.53-0.65-0.5c-0.29,0.03-0.5,0.26-0.62,0.51
		C85.97,63.94,85.96,63.97,85.94,64.01z"/>
        <path class="st0" d="M98.39,96.37c0.04-0.1,0.08-0.24,0.16-0.42c0.13-0.36,0.3-0.87,0.49-1.49c0.1-0.31,0.19-0.65,0.28-1
		c0.1-0.36,0.19-0.74,0.27-1.13c0.08-0.39,0.16-0.8,0.23-1.22c0.07-0.42,0.13-0.85,0.17-1.28l0.03-0.32l0.03-0.32
		c0.03-0.21,0.03-0.43,0.04-0.64c0.01-0.1,0.01-0.21,0.01-0.31c0-0.1,0.01-0.21,0.01-0.31c0-0.22-0.01-0.42-0.01-0.62
		c0-0.21-0.02-0.4-0.03-0.6s-0.03-0.38-0.04-0.57c-0.03-0.19-0.05-0.36-0.07-0.54c-0.02-0.18-0.05-0.35-0.08-0.5
		c-0.01-0.08-0.02-0.17-0.04-0.24c-0.02-0.08-0.03-0.15-0.05-0.23c-0.03-0.15-0.06-0.29-0.08-0.42c-0.07-0.26-0.12-0.48-0.17-0.67
		c-0.11-0.36-0.17-0.58-0.17-0.58s0.1,0.2,0.27,0.56c0.08,0.18,0.17,0.4,0.26,0.66c0.08,0.26,0.2,0.55,0.27,0.87
		c0.1,0.33,0.17,0.69,0.24,1.06c0.03,0.19,0.06,0.38,0.09,0.59c0.02,0.2,0.04,0.41,0.06,0.62c0.02,0.42,0.04,0.85,0.03,1.29
		c0,0.22-0.01,0.44-0.03,0.66l-0.02,0.33l-0.04,0.33c-0.05,0.43-0.11,0.87-0.19,1.3c-0.09,0.42-0.18,0.83-0.29,1.24
		c-0.1,0.39-0.23,0.78-0.35,1.13c-0.11,0.36-0.25,0.69-0.37,0.99c-0.12,0.3-0.25,0.57-0.36,0.81c-0.11,0.24-0.22,0.44-0.32,0.61
		c-0.19,0.33-0.31,0.51-0.31,0.51S98.33,96.44,98.39,96.37z"/>
        <path class="st0" d="M97.52,81.55c0.07-0.07,0.16-0.22,0.24-0.41s0.14-0.43,0.18-0.71s0.05-0.61,0.04-0.97
		c-0.02-0.35-0.05-0.74-0.12-1.16c-0.01-0.1-0.03-0.2-0.04-0.31s-0.04-0.22-0.06-0.32c-0.04-0.22-0.09-0.43-0.14-0.65
		c-0.04-0.22-0.11-0.44-0.16-0.67c-0.07-0.23-0.13-0.45-0.19-0.69c-0.07-0.23-0.13-0.47-0.2-0.7c-0.07-0.23-0.15-0.47-0.22-0.7
		s-0.15-0.46-0.23-0.69s-0.15-0.46-0.23-0.69c-0.15-0.46-0.32-0.91-0.47-1.34c-0.16-0.44-0.32-0.86-0.46-1.25
		c-0.16-0.39-0.3-0.77-0.43-1.12c-0.14-0.34-0.25-0.66-0.36-0.94c-0.11-0.29-0.2-0.54-0.28-0.73c-0.15-0.4-0.24-0.63-0.24-0.63
		s0.12,0.21,0.34,0.6c0.1,0.19,0.23,0.42,0.37,0.69s0.29,0.57,0.46,0.91c0.16,0.33,0.33,0.7,0.51,1.08c0.17,0.39,0.35,0.8,0.53,1.23
		c0.17,0.43,0.35,0.88,0.52,1.34c0.1,0.23,0.18,0.46,0.26,0.69s0.16,0.47,0.23,0.7c0.08,0.24,0.15,0.48,0.22,0.72
		c0.07,0.23,0.14,0.47,0.2,0.71c0.05,0.24,0.11,0.47,0.17,0.71c0.04,0.23,0.1,0.47,0.14,0.69s0.09,0.45,0.11,0.68
		c0.01,0.11,0.02,0.23,0.04,0.33c0.01,0.11,0.02,0.21,0.03,0.32c0.01,0.11,0.02,0.21,0.02,0.31c0,0.1,0.01,0.2,0.01,0.31
		c0,0.19,0.01,0.39-0.01,0.58c0,0.19-0.02,0.36-0.04,0.53c-0.01,0.07-0.03,0.16-0.04,0.24c-0.01,0.08-0.03,0.16-0.05,0.23
		c-0.07,0.3-0.17,0.54-0.28,0.72c-0.11,0.18-0.22,0.31-0.31,0.38c-0.09,0.07-0.14,0.09-0.14,0.09S97.47,81.62,97.52,81.55z"/>
        <path class="st0" d="M117.86,47.44"/>
        <path class="st0" d="M98.19,99.13c0.02,0.11,0.04,0.24,0.05,0.41c0.04,0.33,0.04,0.77-0.02,1.21c-0.02,0.11-0.03,0.22-0.05,0.33
		c-0.01,0.1-0.04,0.21-0.07,0.31s-0.06,0.2-0.09,0.29c-0.03,0.09-0.08,0.17-0.11,0.24c-0.03,0.07-0.07,0.15-0.11,0.2
		c-0.01,0.03-0.04,0.05-0.05,0.08c-0.01,0.03-0.04,0.05-0.05,0.07c-0.07,0.08-0.1,0.12-0.1,0.12s0.01-0.06,0.04-0.15
		c0.01-0.04,0.03-0.1,0.04-0.16c0.02-0.07,0.03-0.14,0.05-0.22c0.01-0.08,0.03-0.16,0.04-0.25c0.01-0.09,0.03-0.18,0.04-0.28
		c0.01-0.04,0.02-0.1,0.03-0.15c0.01-0.05,0.01-0.1,0.02-0.16c0.01-0.1,0.03-0.21,0.04-0.31c0.03-0.21,0.05-0.43,0.08-0.63
		c0.03-0.21,0.05-0.39,0.08-0.55c0.02-0.16,0.05-0.29,0.07-0.39c0.01-0.09,0.03-0.15,0.03-0.15S98.16,99.05,98.19,99.13z"/>
</g>
    <g id="Waves">
	<g>
		<path class="st1" d="M48.71,125.43c-15.45-15.45-15.45-40.49,0-55.94l7.78,7.78c-11.15,11.15-11.15,29.24,0,40.39L48.71,125.43z"
        />
        <path class="st0" d="M24.31,149.84c-28.92-28.92-28.92-75.82,0-104.75l14.56,14.56c-20.88,20.88-20.88,54.74,0,75.63L24.31,149.84
			z"/>
	</g>
        <g>
		<path class="st1" d="M131.81,69.49c15.45,15.45,15.45,40.49,0,55.94l-7.78-7.78c11.15-11.15,11.15-29.24,0-40.39L131.81,69.49z"/>
            <path class="st0" d="M156.21,45.09c28.92,28.92,28.92,75.82,0,104.75l-14.56-14.56c20.88-20.88,20.88-54.74,0-75.63L156.21,45.09z
			"/>
	</g>
</g>
</svg>
