<?xml version="1.0" encoding="utf-8"?>
<!-- Generator: Adobe Illustrator 24.0.1, SVG Export Plug-In . SVG Version: 6.00 Build 0)  -->
<svg version="1.1" id="Ebene_1" xmlns="http://www.w3.org/2000/svg" xmlns:xlink="http://www.w3.org/1999/xlink" x="0px" y="0px"
     viewBox="0 0 1500 1500" style="enable-background:new 0 0 1500 1500;" xml:space="preserve">
<style type="text/css">
	.st0{fill:#DB0066;}
	.st1{fill:#FFCC04;}
	.st2{fill:none;stroke:#FFFFFF;stroke-width:44.0564;stroke-linecap:round;stroke-linejoin:round;stroke-miterlimit:10;}
	.st3{fill:#1D1D1B;}
</style>
    <g>
	<g>
		<path class="st0" d="M679.25,365.96c2.77-4,10.73-6.68,9.99-12.69c-1.01-8.1-24.72-1.5-29.09-0.5
			c-22.65,4.98-44.08,15.04-60.81,30.88c-29.49,27.91-45.34,70.21-47.88,110.89c-1.57,25.2,1.43,50.34,6.94,75.2
			c2.08,9.17,3.51,18.88,7.5,27.49c2.31,5,6.05,4.87,7.57-0.71c2.18-7.92,1.63-19.86,13.34-17.62c8.5,1.62,17.59,2.11,25.77-0.46
			c16.76-5.28,28.46-24.64,34.22-42.21c2.46-7.64,3.55-15.37,6.24-22.78c3.11-10.76,14.52-16.55,18.68-26.9
			c-10.28,2.4-25.27,3.33-34.34-4.03c-8.68-7.07-4.62-19.13-0.34-27c2.32-4.23,5.65-7.9,7.69-12.3c1.99-4.46,3.53-9.27,5.07-13.96
			c2.98-9.28,5.4-18.68,7.49-28.2c1.9-8.42,6.41-12.94,12.22-18.74C674.18,377.66,675.47,371.32,679.25,365.96z"/>
        <path class="st0" d="M617.46,669.11L617.46,669.11C617.52,669.06,617.52,669.06,617.46,669.11
			C617.46,669.11,617.41,669.17,617.46,669.11z"/>
        <path class="st0" d="M879.29,672.85c-0.06-0.06-0.06-0.06-0.06-0.06L879.29,672.85C879.34,672.9,879.29,672.85,879.29,672.85z"/>
        <path class="st0" d="M671.11,690.52c0.97-3.44,1.86-7.49,2.72-10.93c1.66-6.72,7.77-25.66,7.77-25.66s-10.3-5.46-20.97-17.96
			c-0.49,4.99-2.38,9.13-6.09,12.4c-3.61,3.27-7.72,4-12.19,5.66c-5.02,1.86-9.35,4.84-14.02,7.27c-4.13,2.1-8.76,3.81-13.57,2.88
			c2.55,3.19,13.07,6.73,16.65,7.09c4.3,0.43,8.18,1.95,12.02,3.96c8.24,4.37,10.77,7.01,18.8,11.81
			C663.52,687.76,670.19,693.46,671.11,690.52z"/>
        <path class="st0" d="M592.68,638.42c0,0.11,0.01,0.22,0.01,0.33c0.11,2.37,0.82,4.8,1.65,7.13c0.41,1.27,0.83,2.44,1.29,3.66
			l0.18,0.5l0.17,0.39l0.35,0.89c0.17,0.28,0.29,0.5,0.46,0.78l0.17,0.39l0.28,0.39c1.31,1.95,3.38,3.49,5.54,4.47
			c2.28,0.99,4.65,1.54,7.08,1.7c2.48,0.22,4.9,0.17,7.26-0.05c1.26-0.14,2.41-0.27,3.56-0.52c0.33-0.1,0.71-0.15,1.04-0.25
			c0.33-0.1,0.71-0.15,1.04-0.25c2.68-0.65,5.24-1.64,7.46-2.96c0.92-0.58,1.73-1.17,2.49-1.81l0.48-0.48
			c-0.28-0.06-0.44-0.12-0.44-0.12l0,0c0,0-0.22-0.12-0.83-0.29c-0.5-0.18-1.38-0.42-2.49-0.88c-1.66-0.59-3.94-1.57-6.66-2.79
			c-0.22-0.12-0.39-0.17-0.56-0.23c-0.11-0.11-0.28-0.17-0.45-0.23c-0.5-0.29-1.06-0.52-1.67-0.81c-1-0.46-2.06-0.98-3.11-1.5
			c-1.06-0.52-2.22-1.04-3.45-1.62c-2.39-1.1-4.94-2.26-7.82-3.2c-0.72-0.18-1.38-0.42-2.16-0.65c-0.72-0.18-1.49-0.42-2.21-0.6
			c-0.72-0.18-1.55-0.37-2.32-0.49c-0.83-0.18-1.66-0.26-2.48-0.44C595.38,638.65,594.17,638.51,592.68,638.42z"/>
        <path class="st0" d="M581.1,591.04c4.52,7.74,9.07,16.81,5.36,25.36c-2.13,5.28-8.16,8.72-8.68,14.75
			c-0.22,2.36,0.04,11.55,3.47,12.28c1.27,0.08,2.04-1.93,2.46-2.8c1.94-3.97,6.2-5.3,10.44-5.15c12.6,0.45,22.83,7.67,34.57,11.46
			c5.81,1.84,15.33,4.47,20.64,0.97c5.15-3.35,8.8-9.36,8.22-15.76c-0.9-10.69-6.45-19.99-14.58-26.94
			c-9.2-8.24-20.33-13.77-26.63-24.91c-6.1,2.61-12.96,3.17-19.67,2.9c-3.91-0.14-12.56-3.42-15.64-1.13c-0.81,0.59,0.81-0.59,0,0
			C577.27,584.85,579.32,587.76,581.1,591.04z"/>
        <path class="st0" d="M649.66,353.24c0.88-0.2,1.8-0.45,2.68-0.65c-7.79-13.48-15.95-26.59-24.49-39.43
			c-0.17-0.28-0.4-0.61-0.57-0.89c5.73,10.36,12.22,22.1,18.93,34.41C647.41,348.85,648.56,351.07,649.66,353.24z"/>
        <path class="st0" d="M650.92,471.03c-0.93-2.33-8.37-19.65-11.37-14.17c-1.17,1.73-1.83,3.97-2.34,6.05
			c-3.52,14.21,4.94,21.39,18.48,22.03C654.16,480.29,652.73,475.64,650.92,471.03C650.45,469.81,651.39,472.25,650.92,471.03z"/>
        <path class="st0" d="M685.19,416.73c-0.14-1.1-1.27-2.78-1.79-3.83c-0.69-1.45-1.33-2.94-2.02-4.39
			c-2.89-6.22-5.84-12.39-8.89-18.46c-0.87-1.83-1.38-2.67-2.3-4.45c-1.18,1.07-2.43,2.09-3.67,3.1c-0.38,0.38,4,9.16,4.41,10.22
			c1.57,3.72,3.03,7.44,4.6,11.16c0.76,1.94,1.57,3.83,2.33,5.77c0.46,1,1.26,4.7,2.21,5.22c0.84,0.51,2.09,0.05,3.11-0.86
			C684.42,419.19,685.33,417.72,685.19,416.73z"/>
        <path class="st0" d="M698.55,445.57c9.52-16.27,18.33-61.43,10.77-67.7c-2.4,3.08-1.87,7.16-4.99,10.17
			c-3.39,3.28-4.13,6.83-4.96,11.38c-0.79,4.05-2.19,7.59-6,9.37c-3.97,1.83-4.4,4.74-5.8,8.61c-2.33,6.49-6.92,5.01-10.85,8.93
			c-2.26,2.26-2.2,7.15-5.98,7.56c-3.56,0.41-4.03,3.92-5.07,6.76c-1.65,4.58-6.43,9.91-10.6,12.4c-3.63,2.17-9.41,1.98-6.72,6.83
			c2.46,4.4,4.33,9.17,5.98,13.94c1.06,3.21,2.43,10.28,4.83,9.13C675.7,475.06,690.41,461.93,698.55,445.57
			C698.76,445.24,698.34,446,698.55,445.57z"/>
        <path class="st0" d="M712.96,493.73c-0.12-0.22-0.12-0.44-0.24-0.67c-0.18-0.61-0.36-1.22-0.59-1.88
			c-0.24-0.67-0.53-1.39-0.71-2.11c-2.8-9.35-6.04-18.83-9.16-27.75c-1.06-2.88-2.11-5.88-3.17-8.76c-0.41-1.05-0.76-2.16-1.17-3.22
			c-1.21,2.56-2.52,5-4.01,7.39c2.57,6.77,5.2,13.59,7.72,20.41c0.7,1.78,1.35,3.71,1.94,5.49c1.06,3.1,2.12,6.32,3.51,9.32
			c0.17,0.39,0.35,0.78,0.52,1.28c0.41,1.05,0.93,2.22,1.5,2.89c0.06,0.06,0.11,0.11,0.17,0.17c0.39,0.28,0.72,0.4,1.27,0.41
			c0.99,0.02,1.97-0.39,2.46-0.66C713.55,495.72,713.66,495.5,712.96,493.73z"/>
        <path class="st0" d="M719.49,517.46c-1.24-5.97-1.76-12.08-2.88-17.93c-0.69-3.81-5.48-1.61-7.66-0.67
			c-0.71,0.37-1.02,1.02-0.94,1.96c0.34,3.03,1.62,5.81,2.62,8.64c0.53,1.5,1,2.94,1.26,4.48c0.12,0.55,0.87,4.2,0.76,4.31
			c1.02-0.91,2.17-1.05,3.55-1.18c0,0-0.11,0,0,0c-0.11,0-0.05,0.05,0,0C716.79,517.12,719.49,517.24,719.49,517.46z"/>
        <path class="st0" d="M723.13,534.75c0.77,0.02,1.59-0.02,2.42,0.06c-0.32-4.3-0.68-12.82-5.03-15.56
			c-1.12-0.69-6.45-0.64-7.53,0.21c-1.08,0.85-0.49,2.52-0.24,3.73c1.1,4.86,1.04,9.2,1.69,13.95
			C716.88,535.6,720.23,535.18,723.13,534.75C723.85,534.71,722.42,534.9,723.13,534.75z"/>
        <path class="st0" d="M727.22,537.87c-2.36-2.14-10.51-0.52-12.44,1.64c-2.63,2.96-0.65,7.74-0.4,11.32
			c0.92-0.58,2.13-0.56,3.13,0.02c2.28,1.32,1.84,3.45,1.61,5.59c1.42-2.77,6.09-2.83,7.69-0.26c0.77-2.24,1.35-3.6,1.95-5.89
			C729.83,546.17,730.7,541.14,727.22,537.87z"/>
        <path class="st0" d="M717.99,552.83C718.05,552.78,718.05,552.78,717.99,552.83L717.99,552.83L717.99,552.83z"/>
        <path class="st0" d="M739.28,531.77c0.05-0.05,0.16-0.16,0.21-0.22c-0.3-1.16-0.66-2.38-0.96-3.54c-1.02-3.6-1.92-7.19-2.83-10.78
			c-0.91-3.59-1.76-7.24-2.56-10.83c-0.37-1.77-0.74-3.65-1.11-5.41l-1.06-5.47l-1.06-5.47l-0.95-5.46
			c-0.32-1.82-0.63-3.64-0.95-5.46c-0.26-1.77-0.58-3.59-0.84-5.46c-0.01-0.44-0.07-0.83-0.14-1.21c0.13,0.66,0.14,1.32,0.21,1.93
			c0.21,1.93,0.36,3.91,0.57,5.84c0.21,1.93,0.47,3.91,0.68,5.84c0.47,3.91,1.06,7.83,1.7,11.69c0.32,1.93,0.69,3.92,1.01,5.85
			c0.32,1.93,0.64,3.86,1.07,5.8c0.38,1.99,0.75,3.87,1.18,5.8c0.43,1.93,0.86,3.87,1.29,5.8c0.48,1.88,0.97,3.87,1.45,5.75
			c0.43,1.93,1.02,3.82,1.5,5.7l0.11,0l0.38-0.05l0.16-0.05l0.16-0.05l0.33-0.1C738.96,532.09,739.18,531.98,739.28,531.77z"/>
        <path class="st0" d="M753.19,531.92c0.51-1.75,0.91-3.5,1.31-5.25c0.45-1.8,0.85-3.77,1.25-5.63c0.4-1.86,0.74-3.78,1.08-5.69
			s0.68-3.83,1.02-5.75c0.34-1.92,0.57-3.84,0.91-5.75c0.29-1.86,0.57-3.84,0.8-5.75c0.23-1.92,0.46-3.84,0.69-5.76
			c0.41-3.89,0.76-7.73,1.05-11.63c0.17-1.98,0.3-3.9,0.42-5.82c0.06-1.98,0.19-3.9,0.25-5.88c0.04-0.71,0.08-1.32,0.06-1.98
			c0.01,0.44-0.04,0.82-0.08,1.21c-0.18,1.76-0.36,3.62-0.59,5.43c-0.12,1.81-0.36,3.62-0.59,5.43l-0.7,5.43l-0.7,5.43l-0.81,5.42
			c-0.29,1.75-0.52,3.56-0.87,5.37c-0.58,3.62-1.21,7.17-1.95,10.73s-1.49,7.11-2.23,10.67c-0.34,1.81-0.74,3.56-1.14,5.31
			l-0.9,3.72l0,0c0.45,0.34,0.95,0.52,1.5,0.64C753.03,531.86,753.14,531.86,753.19,531.92z"/>
        <path class="st0" d="M763.98,558.61c-1.44-5.31-1.4-10.75-2.4-16.16c-0.5-2.54-1.39-5.58-3.14-7.66
			c-1.52-1.74-3.44-1.51-5.48-1.83c-3.09-0.51-4.16-4.05-6.98-4.94c-4.04-1.25-4.34,4.79-7.84,5.59c-3.5,0.8-5.09,0.82-5.93,4.92
			c-0.75,3.45-0.72,6.91-1.41,10.41c-0.69,3.39-1.91,7.87-1.71,11.84c0.16,4.57-1.02,10.7-5.77,12.07c-7.37,2.2-7.97-7.11-7.19-11.6
			c0.49-2.63,4-10.41-1.29-8.5c-4.64,1.6-3.84,10.03-4.13,13.92c-0.3,3.68-1.43,7.28-2.61,10.72c-3.81,11.13-8.79,21.84-12.61,32.97
			c-3.25,9.44-5.17,19.12-6.76,29.04c-1.73,10.96-6.62,22.94-4.16,34.32c4.92,22.87,24.96,33.89,46.36,36.9
			c4.02,0.48,8.21,0.68,12.13,1.6c3.7,0.69,6.89,3.02,10.67,2.72c5.98-0.47,11.36-3.26,17.45-3.61c5.71-0.31,11.03-0.9,16.38-2.54
			c11.14-3.37,20.17-10.04,25.26-20.64c5.14-10.77,2.84-22.53,0.16-34.03c-3.05-13.26-6.71-26.49-10.96-39.45
			c-4.31-13.13-11.07-24.94-16.42-37.7c-1.92-4.61-2.78-8.69-3.55-13.55c-0.31-1.6-0.51-3.2-1.04-4.81
			c-0.42-1.38-1.01-3.16-2.18-4.12c-0.62-0.51-1.39-0.86-2.22-0.82c-4.34,0.18,0.06,5.11,0.76,6.78c0.93,2.33,1.16,5.14,1,7.55
			c-0.32,5.38-4.78,7.37-9.13,4.74C763.51,569.32,765.25,563.86,763.98,558.61z"/>
        <path class="st0" d="M764.59,544.82c-0.63,3.89,0.35,7.98,1.32,11.85c0.86-0.86,2.44-1.54,3.64-1.73c1.26-0.25,2.8,0.01,3.81,0.91
			c-0.32-1.82,0.13-3.96,2.15-4.4c0.93-0.25,2.03-0.01,2.87,0.62c0.84,0.62,1.46,1.46,1.92,2.35c0.28-2.19,0.34-4.28,0.18-6.48
			c-0.16-2.09-0.7-4.14-2.65-5.34c-2.34-1.48-5.43-1.77-8.08-2.16c-0.66-0.13,0.72,0.07,0,0
			C766.79,539.93,765.08,541.98,764.59,544.82z"/>
        <path class="st0" d="M775.8,522.71c-8.26-0.74-8.04,8.83-8.11,15.43c3.07-0.48,8.43,1.02,11.17,2.67
			c0.17-2.09-0.53-4.08-0.36-6.17c0.27-2.74,2.83-8.46,1.23-11.13C778.6,522.6,777.12,522.85,775.8,522.71
			C775.41,522.64,776.29,522.77,775.8,522.71z"/>
        <path class="st0" d="M779.79,502.4c-3.36-0.24-6.4-3.61-5.7,3c0.45,5.4-1.03,10.37-1.79,15.63c2.02-0.56,5.48-0.86,7.53-0.1
			c-0.27-2.32-0.21-4.51,0.06-6.82c0.37-2.85,4-7.83,2.73-10.6C781.99,502.67,781.11,502.43,779.79,502.4
			C779.68,502.4,779.95,502.46,779.79,502.4z"/>
        <path class="st0" d="M797.72,430.68c-2.48,6.98-4.69,13.8-6.68,20.52c-0.51,1.86-1.12,3.71-1.63,5.57
			c-0.92,2.84-1.74,5.79-2.61,8.68c-2.65,9.18-5.19,18.24-7.45,27.48c-0.15,0.71-0.35,1.48-0.56,2.13c-0.15,0.6-0.36,1.26-0.51,1.86
			c-0.1,0.22-0.1,0.44-0.2,0.66c-0.46,1.58-0.4,1.86,0.21,2.15c0.5,0.29,1.45,0.69,2.44,0.72c0.49-0.04,0.93-0.14,1.2-0.41
			c0.05-0.05,0.11-0.11,0.16-0.16c0.53-0.65,0.95-1.85,1.31-2.88c0.15-0.49,0.31-0.87,0.47-1.25c1.2-3,2.11-6.16,2.92-9.22
			c0.51-1.86,1.01-3.72,1.58-5.52c3.28-10.59,6.66-21.07,10.06-31.33l0.15-0.49c1.44-4.37,2.88-8.73,4.37-13.15
			c-0.62-0.51-1.18-1.07-1.74-1.63c-1.01-0.9-1.91-1.91-2.82-2.92C798.11,431.19,797.89,430.85,797.72,430.68z"/>
        <path class="st0" d="M818.6,391.8c-2.57-4.07-8.73-4.32-11.62-8.18c-2.05-3.24-1.43-7.12-3.15-10.46
			c-2.18-4.01-7.36-4.46-9.28-8.95c-2.32-5.44,0.22-12.14-3.85-16.97c-2.42-2.64-3.94-3.94-4.95-7.43c-0.54-1.94-0.1-4.4-1.24-6.19
			c-12.61,1.47-7.22,35.24-6.17,42.74c2.36,16.77,6.27,33.57,17.03,47.45c8.04,10.3,19.63,19.31,30.14,26.8
			c7.6,5.45,8.6,0.86,13.28-5.74c2.45-3.46,4.47-6.38,7.48-9.39c1.29-1.29,1.77-1.77,5.44-4.99c-8.55-6.08-19.12-11.38-22.28-22.5
			c-0.54-1.83-0.86-6.23-3.4-6.73c-1.38-0.31-2.65-0.28-3.66-1.51C820.38,397.45,820.19,394.25,818.6,391.8
			C817.86,390.63,818.77,391.97,818.6,391.8z"/>
        <path class="st0" d="M861.52,429.67c-11.18-0.86-21.1,19.75-25.57,26.35c8.16,1.18,19.23,2.03,25.47-4.09
			C867.07,446.4,865.36,436.3,861.52,429.67C860.81,429.6,861.81,430.28,861.52,429.67z"/>
        <path class="st0" d="M819.17,390.22c5.09-13.08,10.36-25.55,16.45-38.05c0.16-0.38,0.11-0.11,0.26-0.49
			c-0.62-0.51-1.24-1.13-1.8-1.69c-6.75,12.49-12.69,24.28-18.66,37.23C816.81,387.96,818.15,388.98,819.17,390.22z"/>
        <path class="st0" d="M908.7,569.51c7.98,0.46,11.17,5.15,12,12.64c0.48,4.35-0.91,15.65,6.32,14.49c4.5-0.23,7.59-6.92,9.55-10.12
			c4.13-6.94,7.53-14.29,11.16-21.52c17.78-35.22,30.42-80.72,20.65-121.13c-10.33-42.9-35.4-81.51-73.6-105.09
			c-18.18-11.19-37.94-19.34-58.2-25.41c-4.98-1.54-19.47-7.43-23.7-2.74c-6.37,5.02,10.08,15.46,12.31,19.08
			c3.3,5.02,2.23,11.16,6.25,16.14c1.64,2.07,3.61,3.82,5.52,5.62c8.87,8.23,9.64,15.34,10.06,26.62
			c0.42,6.44,2.92,12.49,4.61,18.69c1.98,7.36,2.22,15.33,6.01,22.24c5.85,10.8,17.31,23.54,5.98,35.32
			c-11.6,12.05-37.27,5.09-51.41-0.24c4.15,13.18,19.96,21.79,20.29,36.2c0.97,8.82,1.88,17.14,4.98,25.62
			c5.16,14.19,14.71,32.77,27.18,42.02C877.31,567.25,893.84,568.84,908.7,569.51C910.41,569.6,905.29,569.32,908.7,569.51z"/>
        <path class="st0" d="M897.96,638.31c4.65-0.83,10.31-0.97,14.13,2.63c1.52,1.52,2.18,3.79,3.86,5.15c-0.11,0-0.06-0.06-0.11,0
			c3.23-0.64,3.14-6.97,3.25-9.44c0.24-6.21-4.13-9.94-7.65-14.63c-3.85-5.04-4.7-10.72-3.3-16.73c1.75-7.6,15.48-22.68,6.45-30.64
			c-4.15-3.61-13.56-1.52-18.58-2.24c-4.57-0.49-9.21-1.37-13.69-2.51c-4.8,11.11-8.85,19.42-18.57,27.12
			c-6.48,5.13-14.02,9.63-18.81,16.56c-5.27,7.63-8.79,19.7-4.72,29.03c3.98,8.28,13.42,9.87,21.3,8.29
			C874.21,647.99,884.98,640.49,897.96,638.31C897.96,638.31,897.14,638.46,897.96,638.31z"/>
        <path class="st0" d="M874.38,664.82c0.94,0.41,2.04,0.32,3.09,0.29c4.39-0.34,8.84-0.4,12.99-1.85c4.96-1.7,6.96-5.83,8.61-10.52
			c0.83-2.29,1.71-4.63,1.87-7.16c0.03-0.93,0.01-1.92-0.17-2.75c-0.22-0.01-0.55-0.01-0.82,0.04c-0.82,0.04-1.65,0.18-2.47,0.22
			c-0.77,0.09-1.65,0.18-2.41,0.27c-0.77,0.09-1.48,0.24-2.25,0.33c-0.77,0.2-1.48,0.35-2.19,0.5c-4.76,1.16-8.99,3.7-13.45,5.68
			c-1.52,0.73-3.16,1.47-4.17,2.82c-0.91,1.24-1.2,2.89-1.16,4.43c0.03,1.32,0.02,3.24,0.5,4.9
			C872.69,663.24,873.32,664.3,874.38,664.82z"/>
        <path class="st0" d="M828.04,693.94c8.75-4.36,16.3-10.79,24.99-15.43c3.86-2.06,7.89-3.61,12.39-3.95
			c3.9-0.3,9.41,0.38,12.37-2.58c-8.46-4.48-10.87-9.15-9.13-19.23c-13.64,2.16-30.98,3.74-32.91-15.93
			c-9.81,10.83-19.57,16.76-19.57,16.76S826.89,689.24,828.04,693.94z"/>
        <path class="st0" d="M920.78,679.29c-1.24,3.38,1.76,7.13,5.32,6.5c5.48-0.97,9.08-6.72,11.34-11.23
			c4.57-9.3,8.38-20.64,5.06-31.28c-3.27,8.67-6.92,17.27-12.35,24.73C927.26,671.69,922.43,674.71,920.78,679.29
			C920.31,680.55,921.19,678.09,920.78,679.29z"/>
        <path class="st0" d="M889.63,706.95c4.57-1.98,8.69-4.64,12.98-7.13c6.51-3.81,12.78-8.39,18.67-13.15
			c-3.35-2.06-4.48-5.98-3.13-9.47c-6.4,3.92-10.49,7.68-18.03,9.92c-4.64,1.38-9.05,3.31-13.17,5.75
			c-3.58,2.12-7.33,4.18-10.51,6.91c-2.48,2.14-4.06,5.29-1.35,8.11c0.56,0.56,1.07,0.96,1.68,1.25
			C880.66,711.2,885.99,708.68,889.63,706.95z"/>
        <path class="st0" d="M832.31,714.76c0.74,3.43,1.04,7.06,1.84,10.54c8.14-2.07,16.59-2.97,24.62-5.26
			c5.35-1.53,14.98-3.62,18.67-7.98c-3.85-2.34-9.23-4.5-5.18-10.01c-8.03,2.4-14.59,6.15-23.21,6.78
			c-3.84,0.24-7.68,0.7-11.46,1.33C833.49,711,831.31,709.79,832.31,714.76z"/>
        <path class="st0" d="M955.31,720.6c6.16-7.06,14.2-11.28,17.28-20.88c-9.22,7.98-19.8,11.48-30.57,16.84
			c-2.88,1.53-12.97,7.57-6.84,11.22C942.32,732.01,951.08,725.4,955.31,720.6z"/>
        <path class="st0" d="M902.26,751.6c7.78-3.62,15.39-7.18,23.11-11.07c5-2.52,10.18-4.33,13.48-8.98
			c-3.41,0.03-9.82-1.32-9.43-5.99c-7.39,6.15-15.3,6.52-24.31,9.01c-5.95,1.68-10.89,4.48-16.15,7.71
			c-4.07,2.49-17.2,9.78-6.49,14.48C888.87,757.89,896.81,754.01,902.26,751.6z"/>
        <path class="st0" d="M835.47,754.58c-1.32,0.19-2.18,12.65-2.53,14.57c14.35-2.31,29.4-2.85,43.14-7.81
			c8.12-2.95,1.22-1.79,0.14-8.24c-0.14-1.43,0.27-2.74,0.95-3.99c-6.58,0.62-12.05,4.4-18.52,4.91
			C851.04,754.77,843.08,753.27,835.47,754.58C835.26,754.69,836.79,754.39,835.47,754.58z"/>
        <path class="st0" d="M938.87,792.41c6.77-4.52,11.79-11,18.56-15.41c-5.56-0.4-12.06,3.74-17.07,5.82
			c-4.52,1.93-20.38,5.42-20.91,11.12C919.33,803.4,936.11,794.27,938.87,792.41z"/>
        <path class="st0" d="M860.48,800.13c-3.26,8.89,18.83,6.04,20.91,5.76c12.67-1.3,26.69-1.37,37.99-7.27
			c-2.57-1.82-3.15-5.51-1.78-8.01c-10.88,2.44-21.17,4.52-32.49,4.81C879.18,795.61,863.28,792.71,860.48,800.13
			C860.43,800.4,860.85,799.2,860.48,800.13z"/>
        <path class="st0" d="M830.31,781.24c-1.07,3.77-2.08,7.48-3.37,11.14c10.98,4.1,21.7,9.02,32.68,13.01
			c-2.4-4.12-1.11-7.89,3.13-9.66c-4.39-2.02-9.01-2.13-13.39-3.71C842.64,789.27,836.81,784.41,830.31,781.24z"/>
        <path class="st0" d="M915.23,845.52c7.87-2.02,15.05-5.59,20.07-11.86c-6.49,2.22-13.48,4.36-20.51,4.42
			c-3.52,0.03-10.28-2.32-12.11,1.87C898.23,847.33,912.55,846.18,915.23,845.52z"/>
        <path class="st0" d="M849.71,831.6c0.01,0.55,0.35,1,0.69,1.45c0.96,1.18,2.41,1.98,3.74,2.56c2,0.93,4.16,1.58,6.26,2.18
			c2.66,0.72,5.2,1.33,7.85,1.83c2.87,0.51,5.74,1.01,8.55,1.46c2.81,0.45,5.63,0.9,8.44,1.24c2.48,0.33,4.96,0.55,7.44,0.88
			c1.88,0.26,3.75,0.42,5.62,0.68c0.88,0.13,1.82,0.21,2.76,0.39c-1.37-2.01-0.89-5.08,0.61-6.8c-5.1-1.66-10.56-0.02-15.72-2.06
			c-5.05-2.04-10.1-4.08-15.4-5.3c-2.38-0.55-4.86-0.99-7.29-1.38c-3.2-0.51-6.51-0.92-9.63-0.5c-1.37,0.13-2.95,0.7-3.59,1.9
			C849.8,830.5,849.75,831,849.71,831.6z"/>
        <path class="st0" d="M816.38,809.12c-0.33,0.21-0.7,0.48-1.14,0.58c10.2,8.48,22.1,16.61,33.2,23.85
			c-1.42-4.54,1.66-6.72,5.67-6.69c-5.46-5.35-13.07-8.88-18.9-13.85c-3.82-3.39-7.84-6.34-11.98-9.4
			C822.4,802.99,817.95,808.11,816.38,809.12C816,809.39,816.81,808.91,816.38,809.12z"/>
        <path class="st0" d="M849.73,1046.06c3.45-0.42,6.44-2.16,9.6-3.41c4.69-1.87,9.95-4.67,12.38-9.34
			c2.38-4.29,3.24-9.88,2.19-14.79c-1.28-8.06-9.24-14.61-15.76-18.34c-7.9-4.14-16.48-6.7-24.49-10.62
			c-5.95-2.94-10.13-7.76-14.64-12.59c-2.5,3.63-7.41,5.27-11.57,5.95c4.05-0.68,13.06,22.95,14.17,25.67
			c4.72,11.71,12.94,20.03,19.93,30.25C843.75,1042.13,844.9,1046.72,849.73,1046.06z"/>
        <path class="st0" d="M790.49,1061.75c6.87,4.83,17.94,2.99,25.45,2.23c8.01-0.7,17.67-1.36,23.58-7.38
			c8.33-8.44-2.04-17.09-7.86-23.98c-6.84-8.24-10.99-18.83-15.38-28.39c-1.62-3.34-9.12-21.37-13.18-20.81
			c-1.61-0.53-5.15,0.65-6.85,0.89c7.37,14.57,3.89,30.77,3.43,44.39c-0.3,8.73-2.8,21.93-7.18,29.8
			C792.02,1058.87,790.11,1062.13,790.49,1061.75z"/>
        <path class="st0" d="M794.16,1046.49c2.24-10.34,1.55-21.24,2.63-31.77c0.9-8.89,2.82-20.83-3.24-28.72
			c-2.55-3.19-17.48-0.07-20.91,1.78c-4.24,2.21-8.15,4.21-13.04,4.26c-9.12,0.12-15.13-5.24-23.12-8.72
			c-15.16-6.56-15.96,13.71-13.79,24.37c2.85,14.25,3.06,30.58,9.09,44.02c2.6,5.72,7.27,10.06,12.99,12.67
			C765.48,1073.93,788.93,1070.62,794.16,1046.49z"/>
        <path class="st0" d="M679.66,1044.98c-0.26,8.02,9.14,12.58,15.67,14.38c9.85,2.64,27.74,6.13,36.69,0.89
			c-6.9-8.29-8.15-19.98-8.88-30.05c-0.7-8.87-2.72-18.09-3.58-26.91c-0.71-7.05-0.29-15.24,4.25-21.01
			c-2.31-0.16-6.08-1.35-8.32-0.91c-4.65,1.05-8.27,11.08-10.09,15.49c-4.44,10.18-6.35,20.42-12.45,30.01
			C689.27,1032.55,679.88,1037.67,679.66,1044.98C679.67,1045.2,679.7,1044.26,679.66,1044.98z"/>
        <path class="st0" d="M704.19,978.03c-1.29-0.96-2.41-1.98-3.37-3.16c-6.23,6.23-11.08,10.52-19.27,13.3
			c-10.53,3.44-21.41,6.22-29.53,14.11c-6.24,6.12-7.03,14.9-3.81,23.17c1.45,3.28,3.54,5.91,6.45,8.06
			c6.04,4.54,13.63,7.07,20.86,8.28c2.15-4.73,6.85-7.98,10.51-11.41c13.72-13.05,13.33-34.71,24.88-49.07
			C708.59,980.49,706.25,979.45,704.19,978.03C702.96,977.12,706.31,979.5,704.19,978.03z"/>
        <path class="st0" d="M817.41,955.27c-1.67-3.39-3.89-6.47-7.43-7.65c-0.94,2.07-2.44,3.79-4.28,5.07
			c-7.79,5.43-22.48,4.82-31.63,3.95c-11.9-1.04-23.77-0.98-35.66-1.37c-7.76-0.23-15.34-0.08-22.87-2.45
			c-4.26-1.36-8.01-3.92-9.81-8.2c-4.31,1.61-7.36,4.89-8.42,9.43c-3.46,14.71,5.4,22.28,19.13,23.75
			c5.46,0.62,10.93-0.24,16.34,0.32c9.31,0.71,16.15,9.06,25.79,9.77c4.62,0.11,8.1-1.57,12.18-3.62
			c12.34-6.15,45.66,3.85,48.71-14.39C820.33,964.96,819.61,960.05,817.41,955.27z"/>
        <path class="st0" d="M808.67,945.78c2.49-6.43,2.41-17.04-2.88-22.55c-7.16,13.8-36.07,7.04-48.17,6.65
			c-13.59-0.48-41.76,5.64-49.53-9.32c-4.65,5.67-6.55,14.09-0.41,23.03c4.04,5.86,11.31,6.58,17.37,7.16
			c6.77,0.54,13.41-0.02,20.14,0.9c6.73,0.92,13.45-0.96,20.17-0.14C776.57,952.91,803.59,958.97,808.67,945.78
			C809.15,944.75,808.63,946.06,808.67,945.78z"/>
        <path class="st0" d="M803.77,899.6c-5.29,6.53-18.16,6.46-26.02,6.33c-8.47-0.19-16.54,0.34-24.95,0.53
			c-5.88,0.14-11.75-1.75-17.64-2.05c-8.42-0.47-20.5,0.36-26.55-7.2c-2.83,5.87-3.07,14.77,1.32,21.53
			c3.3,5.02,9.26,5.82,14.55,6.49c11.14,1.46,21.93-0.1,33.05,0.48c11.23,0.59,44.63,9.16,48.15-7.42
			C806.98,912.48,807.14,905.12,803.77,899.6z"/>
        <path class="st0" d="M804,876.08c-4.16,3.15-9.92,3.73-15.08,4.27c-11.63,1.16-23.7-0.16-35.5,0.51
			c-8.68,0.46-17.44-0.67-26.09-1.26c-6.77-0.43-14.65-1.32-20.09-6.01c-2.93,8.78-0.75,22.58,9.81,25.18
			c8.74,2.18,17.56,0.79,26.28,2.31c10.88,2.28,22.61,0.57,33.73,1.27c7.32,0.44,23.02,1.96,26.69-6.1
			C806.58,890.48,806.44,881.85,804,876.08z"/>
        <path class="st0" d="M803.4,873.64c5.39-4.49,5.42-15.43,2.91-21.92c-1.05-2.77-15.32-1.56-19.12-2.03
			c-10.75-1.29-21.27-2.25-32.11-2.66c-5.28-0.23-10.61,0.14-15.82,0.41c-10.87,0.52-25.27,5.58-35.97,1.76
			c-7.86,29.12,27.95,27.52,46.53,27.4c6.1-0.03,12.13-0.77,18.19-0.52c6.22,0.31,12.68,1.5,18.88,1.15
			C792.31,877.07,799.19,877.17,803.4,873.64C803.5,873.53,803.34,873.7,803.4,873.64z"/>
        <path class="st0" d="M804.75,846.52c8.98-1.44,7.22-15.89,7.94-23.13c0.17-2.31,0.34-4.5,0.67-6.75c1-6.74-1.19-3.77-6.02-3.55
			c-9.34,0.34-15.04-6.34-22.3-11.01c-7.62-6.33-24.32-5.83-33.57-6.27c-11.23-0.48-20.88-1.74-29.33,5.82
			c-8.94,7.93-16.67,11.27-28.5,8.47c-0.05,5,2.42,9.62,3.9,14.44c1.55,5.31,1.94,10.21,2.5,15.62c0.3,3.31,2.04,4.94,4.97,5.83
			c5.7,1.83,12.96-0.69,18.72-1.39c7.51-0.87,15.03-1.64,22.66-1.85c7.91-0.26,15.67,0.19,23.61,0.92
			C781.35,844.72,793.53,848.29,804.75,846.52C805.25,846.47,804.48,846.56,804.75,846.52z"/>
        <path class="st0" d="M819.18,801.6c10.84-16.24,13.27-40.16,13.31-59.67c-0.01-21.94-4.77-45.19-13.49-65.62
			c-2.24,22.38-21.68,35.18-42.96,37.34c-5.43,0.59-10.37,1.03-15.44,2.84c-2.67,0.98-5.51,1.91-8.43,1.79
			c-3.74-0.2-7.14-2.31-10.84-2.78c-26.47-3.35-58.6-11.84-61.55-44.45c-8.13,21.75-11.01,47.36-8.55,71
			c1.29,13,2.8,26.23,7.53,38.6c3.33,8.6,7.21,19.68,15.47,25.04c12.39,8.2,21.6-7.31,30.56-12.22c6.73-3.69,15.89-2.28,23.37-1.99
			c7.98,0.24,15.81,1.3,23.7,2.63c5.41,0.89,11.03,1.46,15.46,5.25c4.92,3.63,9.09,8.01,15.18,9.69
			C809.66,811,815.35,807.34,819.18,801.6C819.5,801.17,819.12,801.65,819.18,801.6z"/>
        <path class="st0" d="M653.76,826.02c3.96,0.09,7.63,2.04,6.42,6.52c6.5-4.25,12.37-9.56,18.92-13.86
			c3.85-2.5,12.9-5.81,11.51-10.95c-2.02-1.7-3.77-3.66-5.24-5.78c-6.65,5.07-12.96,10.37-19.49,15.66
			C662.05,820.55,657.15,822.63,653.76,826.02z"/>
        <path class="st0" d="M574.44,679.62c7.54-4.5-5.15-13.86-7.98-17.11c-6.27-7.35-10.44-16.79-14.27-25.56
			c-2.42,9.73,1.33,19.71,5.66,28.66C560.04,670.16,567.77,683.7,574.44,679.62C575.25,679.14,574.17,679.78,574.44,679.62z"/>
        <path class="st0" d="M624.34,705.44c5.75-5.64-12.45-15.35-16.01-17.19c-6.34-3.33-13.62-4.05-19.85-7.38
			c-3.79-2.07-6.61-5.43-10.29-7.6c1.56,3.5,0.61,7.38-2.48,9.34c8.06,6.45,17.59,11.78,26.6,16.5c4.67,2.42,14.12,9.39,19.69,7.76
			C622.94,706.62,623.7,706.09,624.34,705.44C624.99,704.8,623.96,705.82,624.34,705.44z"/>
        <path class="st0" d="M666.57,722.52c-0.11-2.48-0.06-5,0.05-7.48c0.08-1.21,0.22-2.47,0.35-3.73c0.14-1.04,0.05-2.42,0.69-3.28
			c-2.98-0.51-5.96-0.91-8.99-1.14c-2.92-0.23-5.9-0.85-8.82-1.08c-9.42-0.82-14.84-4.63-23.64-7.41c3,3.86,2.92,9.8-6.63,10.46
			c0.38-0.05,1.17,0.52,1.56,0.7c0.67,0.24,1.22,0.47,1.83,0.76c1.17,0.52,2.33,1.04,3.5,1.45c2.33,0.93,4.66,1.76,7.04,2.52
			c4.76,1.54,9.58,2.91,14.33,4.12c3.21,0.84,6.47,1.63,9.73,2.31c1.6,0.31,3.21,0.73,4.81,1.04c0.61,0.18,1.33,0.36,2.05,0.54
			C665.19,722.54,665.97,722.67,666.57,722.52z"/>
        <path class="st0" d="M605.15,842.23c7.04-6.93-10.11-6.77-11.48-6.86c-7.26-0.06-14.52-2.59-21.33-5
			C578.49,837.71,596.23,849,605.15,842.23C605.53,841.85,605.04,842.33,605.15,842.23z"/>
        <path class="st0" d="M657.42,829.79c-4.43-4-18.38-0.75-23.08,0.46c-4.97,1.26-9.75,3.9-14.84,4.94
			c-4.21,0.84-8.97-0.37-13.06,0.91c3.39,1.56,2.25,4.83,1.04,6.84c13.91-2.21,28.05-2.05,41.71-5.59
			C651.04,836.84,661.8,833.85,657.42,829.79C656.69,829.17,657.59,829.96,657.42,829.79z"/>
        <path class="st0" d="M564.8,775.11c-5.34-2.54-14.36-7.81-20.07-7.5c3.8,2.51,38.93,34.1,39.07,18.32
			C583.33,779.99,569.41,777.14,564.8,775.11z"/>
        <path class="st0" d="M642.71,794.76c-3.25-7.55-18.97-5.11-24.92-5.46c-11.34-0.59-21.84-2.92-32.79-5.7
			c1.54,2.51,1.24,6.3-1.25,8c11.69,6.2,25.72,6.69,38.45,8.36C624.31,800.22,646.6,803.7,642.71,794.76
			C642.31,793.82,642.83,794.98,642.71,794.76z"/>
        <path class="st0" d="M674.12,776.4c-7.02,2.97-12.9,8.17-19.98,10.87c-4.31,1.5-8.93,1.39-13.12,3.33
			c4.33,1.86,6.01,5.69,3.74,9.76c11.18-3.87,22.18-8.67,33.36-12.65C676.61,784.05,675.31,780.28,674.12,776.4
			C673.91,776.51,674.42,777.45,674.12,776.4z"/>
        <path class="st0" d="M670.7,763.84c-2.49-5.5-4.2-15.16-4.2-15.16s-4.46-0.27-6.06-0.47c-4.9-0.28-9.74-0.39-14.63-0.44
			c-8.19-0.13-14.67-4.57-22.67-5.58c2.79,4.41-0.26,10.05-5.25,10.77c6.14,1.73,12.24,3.74,18.43,5.31
			c8.41,2.17,16.76,2.14,25.1,3.71C664.52,762.6,667.56,763.28,670.7,763.84z"/>
        <path class="st0" d="M607.56,733.7c-6.34-3-12.94-5.74-19.64-7.6c-3.48-0.9-6.43-2.46-9.76-3.85c-1.5-0.64-8.21-3.27-9.62-4.78
			c0.71,4.69-4.82,5.5-8.23,5.31c4.42,5.71,59.71,38.86,61.93,22.69C621.76,739.09,612.4,736.07,607.56,733.7z"/>
        <path class="st0" d="M566.62,717.48c0.07-1.65-1.6-2.79-2.77-3.53c-7.2-4.84-14.81-8.15-22.24-13.32
			c-2.74-1.88-12.69-9.25-15.35-12.67c1.88,5.1,3.15,7.77,4.96,10.23c5.28,7.32,11.09,13.78,18.9,18.57c3.29,2,7.12,3.57,10.96,3.22
			c1.43-0.08,4.01-0.18,5.03-1.42C566.36,718.3,566.52,717.92,566.62,717.48z"/>
        <path class="st0" d="M765.97,564.04c0.18,2.97,1.41,6.35,4.35,7.69c3.05,1.33,5.56,0.29,6.26-2.88c0.7-2.95-0.2-6.33-1.53-9.05
			c-0.81-1.67-2.98-2.87-4.79-2.86c-2.14,0.12-3.32,1.63-3.88,3.54C766.02,561.62,765.94,562.94,765.97,564.04z"/>
        <path class="st0" d="M717.68,560.9c-0.47,1.25-0.71,2.73-0.73,4.11c-0.08,1.1,0.05,2.31,0.41,3.42c0.65,2.05,2.22,3.51,4.47,3.29
			c0.71-0.04,1.37-0.24,1.97-0.5c3.87-1.62,4.78-7.15,3.54-11.08c-0.65-2.16-2.4-3.9-4.76-3.68c-2.14,0.23-3.7,1.89-4.53,3.74
			C717.95,560.42,717.84,560.63,717.68,560.9z"/>
        <path class="st0" d="M809.1,798.51c0.26-0.71,0.62-1.75,1.14-3.05c0.93-2.62,2.22-6.38,3.6-10.91c0.72-2.29,1.38-4.75,2.09-7.37
			s1.36-5.41,2.01-8.31c0.59-2.85,1.18-5.91,1.72-8.92c0.48-3.07,0.96-6.25,1.27-9.37l0.22-2.36l0.22-2.36
			c0.18-1.54,0.2-3.13,0.28-4.67c0.04-0.71,0.07-1.54,0.06-2.31s0.07-1.54,0.06-2.31c0.02-1.59-0.07-3.08-0.05-4.56
			c-0.04-1.54-0.18-2.97-0.21-4.4s-0.23-2.81-0.32-4.19c-0.2-1.38-0.39-2.65-0.53-3.97s-0.39-2.54-0.58-3.7
			c-0.07-0.61-0.14-1.21-0.26-1.77c-0.12-0.55-0.25-1.11-0.37-1.66c-0.25-1.11-0.43-2.15-0.62-3.09c-0.48-1.88-0.85-3.54-1.27-4.92
			c-0.83-2.66-1.25-4.26-1.25-4.26s0.75,1.5,1.96,4.11c0.58,1.33,1.22,2.94,1.92,4.83c0.59,1.88,1.47,4.05,2.02,6.42
			c0.72,2.44,1.27,5.03,1.77,7.79c0.2,1.38,0.45,2.81,0.65,4.3c0.14,1.43,0.29,2.98,0.43,4.52c0.18,3.08,0.31,6.22,0.22,9.46
			c-0.02,1.59-0.09,3.24-0.22,4.83l-0.16,2.42l-0.27,2.41c-0.37,3.18-0.84,6.36-1.43,9.53c-0.64,3.12-1.29,6.13-2.1,9.08
			c-0.76,2.9-1.68,5.73-2.56,8.3c-0.82,2.62-1.81,5.07-2.75,7.25c-0.88,2.23-1.83,4.19-2.67,5.93s-1.63,3.21-2.32,4.46
			c-1.37,2.39-2.28,3.74-2.28,3.74S808.67,799.05,809.1,798.51z"/>
        <path class="st0" d="M802.76,689.73c0.54-0.54,1.17-1.62,1.75-2.98c0.57-1.36,1.03-3.17,1.31-5.25c0.28-2.08,0.34-4.5,0.28-7.14
			c-0.11-2.59-0.4-5.45-0.85-8.49c-0.07-0.72-0.2-1.49-0.33-2.26c-0.13-0.77-0.31-1.6-0.44-2.37c-0.31-1.6-0.68-3.15-1.04-4.81
			c-0.31-1.6-0.79-3.26-1.16-4.92c-0.48-1.66-0.96-3.32-1.38-5.03c-0.53-1.72-0.96-3.43-1.49-5.15c-0.53-1.72-1.07-3.43-1.6-5.15
			s-1.12-3.38-1.66-5.1c-0.53-1.72-1.12-3.38-1.71-5.04c-1.12-3.38-2.35-6.65-3.47-9.81c-1.17-3.22-2.34-6.32-3.4-9.2
			c-1.17-2.89-2.22-5.66-3.16-8.21c-0.99-2.5-1.87-4.88-2.63-6.93c-0.82-2.11-1.46-3.94-2.05-5.38c-1.11-2.94-1.76-4.66-1.76-4.66
			s0.92,1.56,2.46,4.4c0.75,1.39,1.66,3.06,2.7,5.06c1.04,2,2.13,4.17,3.34,6.67c1.21,2.39,2.43,5.11,3.76,7.95
			c1.28,2.89,2.55,5.89,3.89,9.05c1.23,3.16,2.57,6.44,3.8,9.82c0.7,1.67,1.34,3.38,1.88,5.1c0.53,1.72,1.18,3.44,1.71,5.15
			c0.59,1.77,1.12,3.49,1.6,5.26c0.53,1.72,1.01,3.49,1.44,5.2c0.37,1.77,0.79,3.48,1.22,5.2c0.31,1.71,0.74,3.43,1,5.08
			s0.63,3.31,0.77,4.97c0.07,0.83,0.15,1.65,0.28,2.43c0.07,0.83,0.15,1.54,0.22,2.37c0.07,0.83,0.15,1.54,0.16,2.31
			c0.02,0.77,0.09,1.49,0.11,2.26c0.03,1.43,0.07,2.86-0.07,4.23c-0.02,1.37-0.16,2.64-0.3,3.9c-0.1,0.55-0.19,1.21-0.29,1.75
			c-0.04,0.6-0.25,1.15-0.35,1.7c-0.5,2.19-1.23,3.93-2.02,5.29c-0.79,1.36-1.6,2.27-2.24,2.81c-0.65,0.53-1.03,0.69-1.03,0.69
			S802.39,690.22,802.76,689.73z"/>
        <path class="st0" d="M807.69,818.82c0.13,0.77,0.26,1.77,0.4,2.98c0.28,2.43,0.29,5.67-0.13,8.9c-0.15,0.82-0.24,1.59-0.38,2.41
			c-0.09,0.77-0.29,1.53-0.5,2.3c-0.2,0.77-0.46,1.47-0.67,2.13c-0.2,0.66-0.58,1.25-0.78,1.8c-0.21,0.54-0.52,1.09-0.79,1.47
			c-0.1,0.22-0.27,0.38-0.37,0.6c-0.1,0.22-0.27,0.38-0.37,0.49c-0.48,0.59-0.75,0.86-0.75,0.86s0.1-0.44,0.3-1.09
			c0.1-0.33,0.2-0.77,0.3-1.2c0.15-0.49,0.25-1.04,0.35-1.59c0.04-0.6,0.19-1.21,0.29-1.86s0.19-1.32,0.28-2.08
			c0.1-0.33,0.15-0.71,0.19-1.1c0.05-0.38,0.09-0.77,0.14-1.15c0.09-0.77,0.18-1.54,0.28-2.3c0.18-1.54,0.37-3.18,0.55-4.61
			c0.18-1.54,0.37-2.85,0.57-4.06c0.14-1.15,0.34-2.14,0.48-2.85c0.09-0.66,0.19-1.1,0.19-1.1S807.41,818.21,807.69,818.82z"/>
	</g>
        <g>
		<g>
			<path class="st1" d="M444.35,1011.96c-113.43-113.43-113.43-297.33,0-410.75l57.09,57.09c-81.9,81.9-81.9,214.68,0,296.57
				L444.35,1011.96z"/>
            <path class="st0" d="M265.17,1191.15c-212.39-212.39-212.39-556.73,0-769.12l106.9,106.9c-153.35,153.35-153.35,401.97,0,555.32
				L265.17,1191.15z"/>
		</g>
            <g>
			<path class="st1" d="M1054.49,601.21c113.43,113.43,113.43,297.33,0,410.75l-57.09-57.09c81.9-81.9,81.9-214.68,0-296.57
				L1054.49,601.21z"/>
                <path class="st0" d="M1233.68,422.03c212.39,212.39,212.39,556.73,0,769.12l-106.9-106.9c153.35-153.35,153.35-401.97,0-555.32
				L1233.68,422.03z"/>
		</g>
	</g>
        <g>
		<g>
			<path class="st2" d="M39.38,888.16V717.51h63.52v23.72H73.51v39.33h28.69v24.65H73.51v82.96H39.38z"/>
            <path class="st2" d="M110.75,888.16V717.51h39.8c13.88,0,23.95,2.45,30.2,7.34c6.25,4.9,9.37,12.75,9.37,23.55v17.93
				c0,8.95-2.2,15.81-6.59,20.59c-4.4,4.78-10.96,7.41-19.67,7.87v0.92c9.72,0.62,16.52,3.03,20.42,7.24
				c3.89,4.2,5.84,11.36,5.84,21.46v43.38c0,3.47,0.27,6.96,0.81,10.47c0.54,3.51,1.31,6.81,2.31,9.9h-33.67
				c-1.08-2.93-1.91-6.19-2.49-9.77c-0.58-3.59-0.87-7.43-0.87-11.52v-6.25v-37.14c0-4.78-0.91-8.39-2.72-10.82
				c-1.81-2.43-4.53-3.64-8.16-3.64h-0.46v79.14H110.75z M156.22,776.05v-27.19c0-3.85-0.75-6.44-2.26-7.75
				c-1.51-1.31-4.54-1.96-9.09-1.96v46.63h1.85c3.55,0,6.02-0.72,7.4-2.14C155.53,782.2,156.22,779.68,156.22,776.05z"/>
            <path class="st2" d="M199.91,888.16V717.51h63.52v23.72h-29.39v39.33h28.69v24.65h-28.69v57.16h29.39v25.8H199.91z"/>
            <path class="st2" d="M271.59,888.16V717.51h34.13v170.65H271.59z"/>
            <path class="st2" d="M315.4,888.16V717.51h63.52v23.72h-29.39v39.33h28.69v24.65h-28.69v82.96H315.4z"/>
            <path class="st2" d="M466.26,717.51v130.62c0,15.89-3.07,27.17-9.2,33.85c-6.13,6.67-16.33,10-30.6,10
				c-14.27,0-24.47-3.33-30.6-10c-6.13-6.68-9.2-17.96-9.2-33.85V717.51h33.9v140.34c0,2.93,0.46,5.05,1.39,6.36
				c0.93,1.31,2.43,1.96,4.51,1.96s3.55-0.63,4.4-1.91c0.85-1.27,1.27-3.41,1.27-6.42V717.51H466.26z"/>
            <path class="st2" d="M475.42,888.16V717.51h46.74l12.03,72.31c1.08,6.48,2,13.73,2.78,21.76c0.77,8.02,1.43,17.2,1.96,27.54h1.39
				c-0.54-12.03-0.95-22.54-1.22-31.53c-0.27-8.98-0.41-15.45-0.41-19.38l-0.23-70.68h26.73v170.65h-40.03l-17.47-92.67
				c-0.69-3.63-1.56-9.1-2.6-16.43c-1.04-7.33-2.1-15.35-3.18-24.06h-0.93c0.46,7.09,0.83,13.3,1.1,18.62
				c0.27,5.33,0.41,9.68,0.41,13.08v101.46H475.42z"/>
            <path class="st2" d="M574.63,888.16V717.51h34.13v75.2h0.46l16.89-75.2h32.63l-21.06,70.68l21.29,99.97h-33.9l-15.85-87.93h-0.46
				v87.93H574.63z"/>
            <path class="st2" d="M707.34,888.16V717.51h33.9v63.28h10.64v-63.28h34.13v170.65h-34.13v-82.49h-10.64v82.49H707.34z"/>
            <path class="st2" d="M795.42,888.16V717.51h63.52v23.72h-29.39v39.33h28.7v24.65h-28.7v57.16h29.39v25.8H795.42z"/>
            <path class="st2" d="M867.22,888.16V717.51h34.13v144.85h29.39v25.8H867.22z"/>
            <path class="st2" d="M938.13,757.89c0-15.97,3.06-27.3,9.19-34.01c6.13-6.71,16.33-10.06,30.6-10.06
				c13.34,0,23.31,3.1,29.91,9.31c6.6,6.21,9.89,15.57,9.89,28.06v25.57h-33.9v-30.31c0-3.01-0.44-5.13-1.33-6.37
				s-2.41-1.85-4.57-1.85c-2.01,0-3.46,0.66-4.34,1.96c-0.89,1.31-1.33,3.4-1.33,6.25v111.41c0,3,0.44,5.15,1.33,6.42
				c0.88,1.28,2.33,1.91,4.34,1.91c2.16,0,3.68-0.65,4.57-1.96c0.89-1.31,1.33-3.43,1.33-6.36v-30.08h-8.56v-26.38h42.46v86.77
				h-16.77l-2.2-10.64c-3.93,5.01-8.29,8.76-13.07,11.22c-4.78,2.47-10.07,3.7-15.85,3.7c-10.57,0-18.5-3.7-23.78-11.11
				c-5.28-7.41-7.92-18.55-7.92-33.44V757.89z"/>
            <path class="st2" d="M1025.57,757.89c0-15.89,3.08-27.2,9.25-33.96c6.17-6.75,16.36-10.12,30.55-10.12
				c14.19,0,24.37,3.33,30.55,10c6.17,6.68,9.25,18.03,9.25,34.07v90.01c0,15.97-3.06,27.31-9.19,34.02s-16.33,10.06-30.6,10.06
				c-14.27,0-24.47-3.35-30.6-10.06c-6.13-6.71-9.19-18.05-9.19-34.02V757.89z M1059.7,746.44v111.41c0,3,0.44,5.15,1.33,6.42
				c0.88,1.28,2.33,1.91,4.34,1.91c2.16,0,3.68-0.65,4.57-1.96c0.89-1.31,1.33-3.43,1.33-6.36V746.44c0-3.01-0.44-5.13-1.33-6.37
				s-2.41-1.85-4.57-1.85c-2.01,0-3.46,0.66-4.34,1.96C1060.14,741.5,1059.7,743.58,1059.7,746.44z"/>
            <path class="st2" d="M1114.02,888.16V717.51h34.13v144.85h29.39v25.8H1114.02z"/>
            <path class="st2" d="M1183.75,888.16l27.31-170.65h43.62l20.13,170.65h-35.29l-3.36-45.47h-16.89l-4.4,45.47H1183.75z
				 M1221.93,817.59h12.61l-3.81-52.07c-0.24-2.93-0.43-8.22-0.58-15.85c-0.08-3.31-0.11-5.89-0.11-7.75h-1.28
				c-0.31,6.56-0.57,11.78-0.81,15.68c-0.23,3.89-0.42,6.46-0.57,7.69L1221.93,817.59z"/>
            <path class="st2" d="M1281.8,888.16V717.51h46.75l12.03,72.31c1.08,6.48,2,13.73,2.78,21.76c0.77,8.02,1.43,17.2,1.96,27.54h1.39
				c-0.54-12.03-0.95-22.54-1.21-31.53c-0.27-8.98-0.41-15.45-0.41-19.38l-0.23-70.68h26.72v170.65h-40.03l-17.47-92.67
				c-0.7-3.63-1.56-9.1-2.6-16.43c-1.04-7.33-2.1-15.35-3.18-24.06h-0.93c0.47,7.09,0.83,13.3,1.1,18.62
				c0.27,5.33,0.41,9.68,0.41,13.08v101.46H1281.8z"/>
            <path class="st2" d="M1381.01,888.16V717.51h39.8c14.5,0,24.75,3.14,30.77,9.43c6.02,6.29,9.03,17.15,9.03,32.57v86.43
				c0,15.35-3.24,26.22-9.72,32.63c-6.48,6.4-17.28,9.6-32.4,9.6H1381.01z M1414.92,740.54v123.45h1.85c3.54,0,6.05-0.73,7.52-2.2
				c1.46-1.46,2.19-3.89,2.19-7.29V750.48c0-3.93-0.75-6.58-2.25-7.92C1422.73,741.21,1419.62,740.54,1414.92,740.54z"/>
		</g>
	</g>
        <g>
		<g>
			<path class="st3" d="M39.38,888.17V717.51h63.52v23.72H73.51v39.33h28.69v24.65H73.51v82.96H39.38z"/>
            <path class="st3" d="M110.75,888.17V717.51h39.8c13.88,0,23.95,2.45,30.2,7.34c6.25,4.9,9.37,12.75,9.37,23.55v17.93
				c0,8.95-2.2,15.81-6.59,20.59c-4.4,4.78-10.96,7.41-19.67,7.87v0.93c9.72,0.62,16.52,3.03,20.42,7.24
				c3.89,4.2,5.84,11.36,5.84,21.46v43.38c0,3.47,0.27,6.96,0.81,10.47c0.54,3.51,1.31,6.81,2.31,9.9h-33.67
				c-1.08-2.93-1.91-6.19-2.49-9.77c-0.58-3.59-0.87-7.43-0.87-11.52v-6.25V823.5c0-4.78-0.91-8.39-2.72-10.82
				c-1.81-2.43-4.53-3.64-8.16-3.64h-0.46v79.14H110.75z M156.22,776.06v-27.19c0-3.85-0.75-6.44-2.26-7.75
				c-1.51-1.31-4.54-1.96-9.09-1.96v46.63h1.85c3.55,0,6.02-0.72,7.4-2.14C155.53,782.21,156.22,779.68,156.22,776.06z"/>
            <path class="st3" d="M199.91,888.17V717.51h63.52v23.72h-29.39v39.33h28.69v24.65h-28.69v57.16h29.39v25.8H199.91z"/>
            <path class="st3" d="M271.59,888.17V717.51h34.13v170.65H271.59z"/>
            <path class="st3" d="M315.4,888.17V717.51h63.52v23.72h-29.39v39.33h28.69v24.65h-28.69v82.96H315.4z"/>
            <path class="st3" d="M466.26,717.51v130.62c0,15.89-3.07,27.17-9.2,33.85c-6.13,6.67-16.33,10-30.6,10
				c-14.27,0-24.47-3.33-30.6-10c-6.13-6.68-9.2-17.96-9.2-33.85V717.51h33.9v140.34c0,2.93,0.46,5.05,1.39,6.36
				c0.93,1.31,2.43,1.96,4.51,1.96s3.55-0.63,4.4-1.91c0.85-1.27,1.27-3.41,1.27-6.42V717.51H466.26z"/>
            <path class="st3" d="M475.42,888.17V717.51h46.74l12.03,72.31c1.08,6.48,2,13.73,2.78,21.76c0.77,8.02,1.43,17.2,1.96,27.54h1.39
				c-0.54-12.03-0.95-22.54-1.22-31.53c-0.27-8.98-0.41-15.45-0.41-19.38l-0.23-70.69h26.73v170.65h-40.03L507.7,795.5
				c-0.69-3.63-1.56-9.1-2.6-16.43c-1.04-7.33-2.1-15.35-3.18-24.06h-0.93c0.46,7.09,0.83,13.3,1.1,18.62
				c0.27,5.33,0.41,9.68,0.41,13.08v101.46H475.42z"/>
            <path class="st3" d="M574.63,888.17V717.51h34.13v75.21h0.46l16.89-75.21h32.63l-21.06,70.69l21.29,99.97h-33.9l-15.85-87.93
				h-0.46v87.93H574.63z"/>
            <path class="st3" d="M707.34,888.17V717.51h33.9v63.29h10.64v-63.29h34.13v170.65h-34.13v-82.49h-10.64v82.49H707.34z"/>
            <path class="st3" d="M795.42,888.17V717.51h63.52v23.72h-29.39v39.33h28.69v24.65h-28.69v57.16h29.39v25.8H795.42z"/>
            <path class="st3" d="M867.22,888.17V717.51h34.13v144.85h29.39v25.8H867.22z"/>
            <path class="st3" d="M938.13,757.89c0-15.97,3.07-27.31,9.2-34.02s16.33-10.06,30.6-10.06c13.34,0,23.32,3.1,29.91,9.31
				c6.6,6.21,9.9,15.57,9.9,28.06v25.57h-33.9v-30.31c0-3.01-0.44-5.13-1.33-6.37c-0.89-1.23-2.42-1.85-4.57-1.85
				c-2,0-3.45,0.66-4.34,1.96c-0.88,1.31-1.33,3.4-1.33,6.25v111.42c0,3,0.44,5.15,1.33,6.42c0.89,1.28,2.34,1.91,4.34,1.91
				c2.16,0,3.69-0.65,4.57-1.96c0.88-1.31,1.33-3.43,1.33-6.36v-30.08h-8.56V801.4h42.46v86.77h-16.78l-2.19-10.64
				c-3.94,5.01-8.3,8.76-13.08,11.22c-4.78,2.47-10.06,3.7-15.85,3.7c-10.57,0-18.49-3.7-23.78-11.11s-7.92-18.55-7.92-33.44V757.89
				z"/>
            <path class="st3" d="M1025.57,757.89c0-15.89,3.08-27.21,9.26-33.96c6.17-6.75,16.35-10.12,30.54-10.12
				c14.2,0,24.37,3.33,30.55,10c6.17,6.68,9.26,18.03,9.26,34.07v90.01c0,15.97-3.07,27.31-9.2,34.02
				c-6.13,6.71-16.33,10.06-30.6,10.06c-14.27,0-24.47-3.35-30.6-10.06c-6.13-6.71-9.2-18.05-9.2-34.02V757.89z M1059.71,746.44
				v111.42c0,3,0.44,5.15,1.33,6.42c0.89,1.28,2.34,1.91,4.34,1.91c2.16,0,3.69-0.65,4.57-1.96c0.88-1.31,1.33-3.43,1.33-6.36
				V746.44c0-3.01-0.44-5.13-1.33-6.37c-0.89-1.23-2.42-1.85-4.57-1.85c-2,0-3.45,0.66-4.34,1.96
				C1060.15,741.5,1059.71,743.59,1059.71,746.44z"/>
            <path class="st3" d="M1114.03,888.17V717.51h34.13v144.85h29.39v25.8H1114.03z"/>
            <path class="st3" d="M1183.75,888.17l27.31-170.65h43.62l20.14,170.65h-35.29l-3.35-45.47h-16.89l-4.4,45.47H1183.75z
				 M1221.93,817.6h12.61l-3.82-52.07c-0.23-2.93-0.42-8.22-0.57-15.85c-0.08-3.31-0.12-5.89-0.12-7.75h-1.27
				c-0.31,6.56-0.58,11.79-0.81,15.68c-0.23,3.89-0.42,6.46-0.58,7.69L1221.93,817.6z"/>
            <path class="st3" d="M1281.81,888.17V717.51h46.74l12.03,72.31c1.08,6.48,2.01,13.73,2.78,21.76c0.77,8.02,1.43,17.2,1.96,27.54
				h1.39c-0.55-12.03-0.95-22.54-1.22-31.53c-0.27-8.98-0.4-15.45-0.4-19.38l-0.24-70.69h26.73v170.65h-40.03l-17.47-92.67
				c-0.69-3.63-1.56-9.1-2.6-16.43c-1.04-7.33-2.1-15.35-3.18-24.06h-0.92c0.46,7.09,0.82,13.3,1.1,18.62
				c0.27,5.33,0.4,9.68,0.4,13.08v101.46H1281.81z"/>
            <path class="st3" d="M1381.02,888.17V717.51h39.8c14.5,0,24.76,3.14,30.78,9.43c6.02,6.29,9.02,17.15,9.02,32.57v86.43
				c0,15.35-3.23,26.22-9.72,32.63c-6.48,6.4-17.28,9.6-32.4,9.6H1381.02z M1414.92,740.54v123.45h1.85c3.55,0,6.06-0.73,7.52-2.2
				c1.46-1.46,2.2-3.89,2.2-7.29V750.48c0-3.93-0.75-6.58-2.26-7.92C1422.73,741.21,1419.62,740.54,1414.92,740.54z"/>
		</g>
	</g>
</g>
</svg>
